<svg width="1280" height="225" viewBox="0 0 1280 225" fill="none" xmlns="http://www.w3.org/2000/svg">
<g clip-path="url(#clip0_3491_5090)">
<path d="M0 20C0 8.9543 8.95431 0 20 0H1260C1271.05 0 1280 8.95431 1280 20V205C1280 216.046 1271.05 225 1260 225H20C8.95431 225 0 216.046 0 205V20Z" fill="#0F1832"/>
<g filter="url(#filter0_f_3491_5090)">
<path d="M1062.46 53.6321C670.717 -179.405 333.235 -43.4902 213.463 53.5969C183.817 175.462 464.053 266.45 607.877 296.712C922.634 312.784 1454.21 286.669 1062.46 53.6321Z" fill="#0231FF" fill-opacity="0.7"/>
</g>
<g filter="url(#filter1_f_3491_5090)">
<path d="M922.306 350.119C777.53 493.098 831.106 686.374 875.992 765.14C875.992 894.685 1324.56 863.498 1504.67 765.14C1684.78 666.783 1609.31 521.645 1615.31 350.119C1620.12 212.898 1423.48 168.198 1324.56 163C1250.8 165.799 1067.08 207.141 922.306 350.119Z" fill="#6C01DB"/>
</g>
<path d="M-863.165 -544.181C-859.655 -577.9 -823.242 -597.454 -793.194 -581.753L1716.64 729.65C1750.79 747.489 1751.06 796.256 1717.12 814.481L-1085.92 2319.65C-1119.86 2337.88 -1160.36 2310.71 -1156.37 2272.39L-863.165 -544.181Z" fill="#6F5AC8" fill-opacity="0.1"/>
<path d="M-863.165 -624.181C-859.655 -657.9 -823.242 -677.454 -793.194 -661.753L1716.64 649.65C1750.79 667.489 1751.06 716.256 1717.12 734.481L-1085.92 2239.65C-1119.86 2257.88 -1160.36 2230.71 -1156.37 2192.39L-863.165 -624.181Z" fill="#6F5AC8" fill-opacity="0.1"/>
<path d="M-863.165 -700.181C-859.655 -733.9 -823.242 -753.454 -793.194 -737.753L1716.64 573.65C1750.79 591.489 1751.06 640.256 1717.12 658.481L-1085.92 2163.65C-1119.86 2181.88 -1160.36 2154.71 -1156.37 2116.39L-863.165 -700.181Z" fill="#6F5AC8" fill-opacity="0.1"/>
<path d="M-863.165 -775.181C-859.655 -808.9 -823.242 -828.454 -793.194 -812.753L1716.64 498.65C1750.79 516.489 1751.06 565.256 1717.12 583.481L-1085.92 2088.65C-1119.86 2106.88 -1160.36 2079.71 -1156.37 2041.39L-863.165 -775.181Z" fill="#6F5AC8" fill-opacity="0.1"/>
<path d="M-863.165 -850.181C-859.655 -883.9 -823.242 -903.454 -793.194 -887.753L1716.64 423.65C1750.79 441.489 1751.06 490.256 1717.12 508.481L-1085.92 2013.65C-1119.86 2031.88 -1160.36 2004.71 -1156.37 1966.39L-863.165 -850.181Z" fill="#6F5AC8" fill-opacity="0.1"/>
<path d="M-724.802 -850.181C-721.291 -883.9 -684.878 -903.454 -654.831 -887.753L1855.01 423.65C1889.15 441.489 1889.42 490.256 1855.49 508.481L-947.554 2013.65C-981.493 2031.88 -1021.99 2004.71 -1018 1966.39L-724.802 -850.181Z" fill="#6F5AC8" fill-opacity="0.1"/>
<g filter="url(#filter2_f_3491_5090)">
<circle cx="-183" cy="-183" r="367" fill="#031150"/>
</g>
<g clip-path="url(#clip1_3491_5090)">
<path d="M48 57C48 50.3726 53.3726 45 60 45H116C122.627 45 128 50.3726 128 57V113C128 119.627 122.627 125 116 125H60C53.3726 125 48 119.627 48 113V57Z" fill="white"/>
<g clip-path="url(#clip2_3491_5090)">
<rect width="80" height="80" transform="translate(48 45)" fill="#512BD4"/>
<g clip-path="url(#clip3_3491_5090)">
<path d="M128 45H48V125H128V45Z" fill="#512BD4"/>
<path d="M62.259 96.11C61.6934 96.11 61.2126 95.9216 60.8166 95.5446C60.4206 95.1579 60.2227 94.6988 60.2227 94.1672C60.2227 93.6258 60.4206 93.162 60.8166 92.7753C61.2126 92.3886 61.6934 92.1953 62.259 92.1953C62.8341 92.1953 63.3196 92.3886 63.7156 92.7753C64.121 93.162 64.3237 93.6258 64.3237 94.1672C64.3237 94.6988 64.121 95.1579 63.7156 95.5446C63.3196 95.9216 62.8341 96.11 62.259 96.11Z" fill="white"/>
<path d="M84.8719 95.7921H81.1951L71.5082 80.5098C71.2632 80.1232 71.0603 79.7219 70.9002 79.3063H70.8153C70.8907 79.7511 70.9284 80.7032 70.9284 82.1626V95.7921H67.6758V75H71.593L80.9547 89.9198C81.3507 90.5386 81.6053 90.9639 81.7184 91.1958H81.7749C81.6807 90.6449 81.6335 89.7121 81.6335 88.3974V75H84.8719V95.7921Z" fill="white"/>
<path d="M100.71 95.7921H89.3263V75H100.258V77.9289H92.6921V83.8156H99.6638V86.73H92.6921V92.8777H100.71V95.7921Z" fill="white"/>
<path d="M116.889 77.9289H111.063V95.7921H107.697V77.9289H101.885V75H116.889V77.9289Z" fill="white"/>
</g>
</g>
</g>
<path d="M50.8764 147.818H55.6705L64.0057 168.17H64.3125L72.6477 147.818H77.4418V174H73.6832V155.054H73.4403L65.7188 173.962H62.5994L54.8778 155.041H54.6349V174H50.8764V147.818ZM91.1495 174.396C89.3086 174.396 87.7021 173.974 86.3299 173.131C84.9577 172.287 83.8924 171.107 83.1339 169.589C82.3754 168.072 81.9961 166.3 81.9961 164.271C81.9961 162.234 82.3754 160.453 83.1339 158.928C83.8924 157.402 84.9577 156.217 86.3299 155.374C87.7021 154.53 89.3086 154.108 91.1495 154.108C92.9904 154.108 94.5969 154.53 95.9691 155.374C97.3413 156.217 98.4066 157.402 99.1651 158.928C99.9237 160.453 100.303 162.234 100.303 164.271C100.303 166.3 99.9237 168.072 99.1651 169.589C98.4066 171.107 97.3413 172.287 95.9691 173.131C94.5969 173.974 92.9904 174.396 91.1495 174.396ZM91.1623 171.188C92.3555 171.188 93.3441 170.872 94.1282 170.241C94.9123 169.611 95.4918 168.771 95.8668 167.723C96.2504 166.675 96.4421 165.52 96.4421 164.259C96.4421 163.006 96.2504 161.855 95.8668 160.807C95.4918 159.75 94.9123 158.902 94.1282 158.263C93.3441 157.624 92.3555 157.304 91.1623 157.304C89.9606 157.304 88.9634 157.624 88.1708 158.263C87.3867 158.902 86.8029 159.75 86.4194 160.807C86.0444 161.855 85.8569 163.006 85.8569 164.259C85.8569 165.52 86.0444 166.675 86.4194 167.723C86.8029 168.771 87.3867 169.611 88.1708 170.241C88.9634 170.872 89.9606 171.188 91.1623 171.188ZM108.392 162.341V174H104.57V154.364H108.239V157.56H108.482C108.933 156.52 109.641 155.685 110.604 155.054C111.575 154.423 112.798 154.108 114.273 154.108C115.611 154.108 116.783 154.389 117.788 154.952C118.794 155.506 119.574 156.332 120.128 157.432C120.682 158.531 120.959 159.891 120.959 161.51V174H117.136V161.97C117.136 160.547 116.766 159.435 116.024 158.634C115.283 157.824 114.264 157.419 112.969 157.419C112.082 157.419 111.294 157.611 110.604 157.994C109.922 158.378 109.381 158.94 108.98 159.682C108.588 160.415 108.392 161.301 108.392 162.341ZM134.357 174.396C132.516 174.396 130.909 173.974 129.537 173.131C128.165 172.287 127.099 171.107 126.341 169.589C125.582 168.072 125.203 166.3 125.203 164.271C125.203 162.234 125.582 160.453 126.341 158.928C127.099 157.402 128.165 156.217 129.537 155.374C130.909 154.53 132.516 154.108 134.357 154.108C136.197 154.108 137.804 154.53 139.176 155.374C140.548 156.217 141.614 157.402 142.372 158.928C143.131 160.453 143.51 162.234 143.51 164.271C143.51 166.3 143.131 168.072 142.372 169.589C141.614 171.107 140.548 172.287 139.176 173.131C137.804 173.974 136.197 174.396 134.357 174.396ZM134.369 171.188C135.563 171.188 136.551 170.872 137.335 170.241C138.119 169.611 138.699 168.771 139.074 167.723C139.457 166.675 139.649 165.52 139.649 164.259C139.649 163.006 139.457 161.855 139.074 160.807C138.699 159.75 138.119 158.902 137.335 158.263C136.551 157.624 135.563 157.304 134.369 157.304C133.168 157.304 132.17 157.624 131.378 158.263C130.594 158.902 130.01 159.75 129.626 160.807C129.251 161.855 129.064 163.006 129.064 164.259C129.064 165.52 129.251 166.675 129.626 167.723C130.01 168.771 130.594 169.611 131.378 170.241C132.17 170.872 133.168 171.188 134.369 171.188ZM169.829 156.332H165.841C165.687 155.48 165.402 154.73 164.984 154.082C164.566 153.435 164.055 152.885 163.45 152.433C162.845 151.982 162.167 151.641 161.417 151.411C160.676 151.18 159.887 151.065 159.052 151.065C157.544 151.065 156.193 151.445 155 152.203C153.815 152.962 152.877 154.074 152.187 155.54C151.505 157.006 151.164 158.795 151.164 160.909C151.164 163.04 151.505 164.838 152.187 166.304C152.877 167.77 153.819 168.878 155.012 169.628C156.206 170.378 157.548 170.753 159.039 170.753C159.866 170.753 160.65 170.642 161.392 170.42C162.142 170.19 162.819 169.854 163.424 169.411C164.029 168.967 164.541 168.426 164.958 167.787C165.385 167.139 165.679 166.398 165.841 165.562L169.829 165.575C169.616 166.862 169.203 168.047 168.589 169.129C167.984 170.203 167.204 171.132 166.25 171.916C165.304 172.692 164.221 173.293 163.002 173.719C161.784 174.145 160.454 174.358 159.014 174.358C156.747 174.358 154.727 173.821 152.954 172.747C151.181 171.665 149.784 170.118 148.761 168.107C147.747 166.095 147.24 163.696 147.24 160.909C147.24 158.114 147.751 155.714 148.774 153.712C149.797 151.7 151.194 150.158 152.967 149.084C154.74 148.001 156.755 147.46 159.014 147.46C160.403 147.46 161.699 147.661 162.9 148.061C164.11 148.453 165.197 149.033 166.16 149.8C167.123 150.558 167.92 151.487 168.551 152.587C169.181 153.678 169.608 154.926 169.829 156.332ZM178.072 147.818V174H174.249V147.818H178.072ZM191.485 174.396C189.645 174.396 188.038 173.974 186.666 173.131C185.294 172.287 184.228 171.107 183.47 169.589C182.711 168.072 182.332 166.3 182.332 164.271C182.332 162.234 182.711 160.453 183.47 158.928C184.228 157.402 185.294 156.217 186.666 155.374C188.038 154.53 189.645 154.108 191.485 154.108C193.326 154.108 194.933 154.53 196.305 155.374C197.677 156.217 198.743 157.402 199.501 158.928C200.26 160.453 200.639 162.234 200.639 164.271C200.639 166.3 200.26 168.072 199.501 169.589C198.743 171.107 197.677 172.287 196.305 173.131C194.933 173.974 193.326 174.396 191.485 174.396ZM191.498 171.188C192.691 171.188 193.68 170.872 194.464 170.241C195.248 169.611 195.828 168.771 196.203 167.723C196.586 166.675 196.778 165.52 196.778 164.259C196.778 163.006 196.586 161.855 196.203 160.807C195.828 159.75 195.248 158.902 194.464 158.263C193.68 157.624 192.691 157.304 191.498 157.304C190.297 157.304 189.299 157.624 188.507 158.263C187.723 158.902 187.139 159.75 186.755 160.807C186.38 161.855 186.193 163.006 186.193 164.259C186.193 165.52 186.38 166.675 186.755 167.723C187.139 168.771 187.723 169.611 188.507 170.241C189.299 170.872 190.297 171.188 191.498 171.188ZM217.344 165.857V154.364H221.18V174H217.421V170.599H217.217C216.765 171.648 216.04 172.521 215.043 173.22C214.055 173.911 212.823 174.256 211.349 174.256C210.087 174.256 208.971 173.979 207.999 173.425C207.036 172.862 206.278 172.031 205.724 170.932C205.178 169.832 204.906 168.473 204.906 166.854V154.364H208.728V166.393C208.728 167.732 209.099 168.797 209.84 169.589C210.582 170.382 211.545 170.778 212.729 170.778C213.445 170.778 214.157 170.599 214.864 170.241C215.58 169.884 216.173 169.342 216.641 168.618C217.119 167.893 217.353 166.973 217.344 165.857ZM233.667 174.384C232.081 174.384 230.667 173.979 229.422 173.169C228.186 172.351 227.215 171.187 226.507 169.679C225.809 168.162 225.459 166.342 225.459 164.22C225.459 162.098 225.813 160.283 226.52 158.774C227.236 157.266 228.216 156.111 229.461 155.31C230.705 154.509 232.115 154.108 233.692 154.108C234.911 154.108 235.891 154.312 236.632 154.722C237.382 155.122 237.962 155.591 238.371 156.128C238.789 156.665 239.113 157.138 239.343 157.547H239.573V147.818H243.395V174H239.662V170.945H239.343C239.113 171.362 238.78 171.839 238.346 172.376C237.919 172.913 237.331 173.382 236.581 173.783C235.831 174.183 234.86 174.384 233.667 174.384ZM234.51 171.124C235.61 171.124 236.539 170.834 237.297 170.254C238.064 169.666 238.644 168.852 239.036 167.812C239.436 166.773 239.637 165.562 239.637 164.182C239.637 162.818 239.441 161.625 239.049 160.602C238.657 159.58 238.081 158.783 237.323 158.212C236.564 157.641 235.627 157.355 234.51 157.355C233.36 157.355 232.401 157.653 231.634 158.25C230.867 158.847 230.287 159.661 229.895 160.692C229.512 161.723 229.32 162.886 229.32 164.182C229.32 165.494 229.516 166.675 229.908 167.723C230.3 168.771 230.88 169.602 231.647 170.216C232.422 170.821 233.377 171.124 234.51 171.124ZM268.311 165.511H272.198L274.934 169.078L276.225 170.663L280.584 176.352H276.544L273.63 172.555L272.632 171.175L268.311 165.511ZM281.428 160.909C281.428 163.705 280.917 166.108 279.894 168.119C278.871 170.122 277.469 171.665 275.688 172.747C273.915 173.821 271.9 174.358 269.641 174.358C267.374 174.358 265.35 173.821 263.569 172.747C261.796 171.665 260.398 170.118 259.375 168.107C258.353 166.095 257.841 163.696 257.841 160.909C257.841 158.114 258.353 155.714 259.375 153.712C260.398 151.7 261.796 150.158 263.569 149.084C265.35 148.001 267.374 147.46 269.641 147.46C271.9 147.46 273.915 148.001 275.688 149.084C277.469 150.158 278.871 151.7 279.894 153.712C280.917 155.714 281.428 158.114 281.428 160.909ZM277.516 160.909C277.516 158.778 277.171 156.984 276.48 155.527C275.799 154.061 274.861 152.953 273.668 152.203C272.483 151.445 271.141 151.065 269.641 151.065C268.132 151.065 266.786 151.445 265.601 152.203C264.417 152.953 263.479 154.061 262.789 155.527C262.107 156.984 261.766 158.778 261.766 160.909C261.766 163.04 262.107 164.838 262.789 166.304C263.479 167.761 264.417 168.869 265.601 169.628C266.786 170.378 268.132 170.753 269.641 170.753C271.141 170.753 272.483 170.378 273.668 169.628C274.861 168.869 275.799 167.761 276.48 166.304C277.171 164.838 277.516 163.04 277.516 160.909ZM298.485 165.857V154.364H302.32V174H298.562V170.599H298.357C297.906 171.648 297.181 172.521 296.184 173.22C295.195 173.911 293.964 174.256 292.489 174.256C291.228 174.256 290.112 173.979 289.14 173.425C288.177 172.862 287.418 172.031 286.864 170.932C286.319 169.832 286.046 168.473 286.046 166.854V154.364H289.869V166.393C289.869 167.732 290.239 168.797 290.981 169.589C291.722 170.382 292.685 170.778 293.87 170.778C294.586 170.778 295.298 170.599 296.005 170.241C296.721 169.884 297.313 169.342 297.782 168.618C298.259 167.893 298.494 166.973 298.485 165.857ZM307.456 174V154.364H311.279V174H307.456ZM309.387 151.334C308.722 151.334 308.151 151.112 307.674 150.669C307.205 150.217 306.971 149.68 306.971 149.058C306.971 148.428 307.205 147.891 307.674 147.447C308.151 146.996 308.722 146.77 309.387 146.77C310.051 146.77 310.618 146.996 311.087 147.447C311.564 147.891 311.803 148.428 311.803 149.058C311.803 149.68 311.564 150.217 311.087 150.669C310.618 151.112 310.051 151.334 309.387 151.334ZM324.692 174.396C322.792 174.396 321.156 173.966 319.783 173.105C318.42 172.236 317.371 171.038 316.638 169.513C315.906 167.987 315.539 166.24 315.539 164.271C315.539 162.277 315.914 160.517 316.664 158.991C317.414 157.457 318.471 156.26 319.835 155.399C321.198 154.538 322.805 154.108 324.654 154.108C326.146 154.108 327.475 154.385 328.643 154.939C329.81 155.484 330.752 156.251 331.468 157.24C332.192 158.229 332.623 159.384 332.759 160.705H329.039C328.835 159.784 328.366 158.991 327.633 158.327C326.908 157.662 325.937 157.33 324.718 157.33C323.653 157.33 322.719 157.611 321.918 158.173C321.126 158.727 320.508 159.52 320.065 160.551C319.621 161.574 319.4 162.784 319.4 164.182C319.4 165.614 319.617 166.849 320.052 167.889C320.487 168.929 321.1 169.734 321.893 170.305C322.694 170.876 323.636 171.162 324.718 171.162C325.442 171.162 326.099 171.03 326.687 170.766C327.283 170.493 327.782 170.105 328.183 169.602C328.592 169.099 328.877 168.494 329.039 167.787H332.759C332.623 169.057 332.21 170.19 331.519 171.188C330.829 172.185 329.904 172.969 328.745 173.54C327.594 174.111 326.244 174.396 324.692 174.396ZM340.363 167.339L340.337 162.673H341.002L348.826 154.364H353.402L344.479 163.824H343.878L340.363 167.339ZM336.847 174V147.818H340.669V174H336.847ZM349.248 174L342.216 164.668L344.85 161.996L353.939 174H349.248ZM371.6 159.158L368.136 159.771C367.991 159.328 367.761 158.906 367.446 158.506C367.139 158.105 366.721 157.777 366.193 157.521C365.664 157.266 365.004 157.138 364.211 157.138C363.129 157.138 362.225 157.381 361.501 157.866C360.777 158.344 360.414 158.962 360.414 159.72C360.414 160.376 360.657 160.905 361.143 161.305C361.629 161.706 362.413 162.034 363.495 162.29L366.615 163.006C368.422 163.423 369.768 164.067 370.654 164.936C371.541 165.805 371.984 166.935 371.984 168.324C371.984 169.5 371.643 170.548 370.961 171.469C370.288 172.381 369.346 173.097 368.136 173.616C366.934 174.136 365.541 174.396 363.956 174.396C361.757 174.396 359.963 173.928 358.574 172.99C357.184 172.044 356.332 170.702 356.017 168.963L359.711 168.401C359.941 169.364 360.414 170.092 361.13 170.587C361.846 171.072 362.779 171.315 363.93 171.315C365.183 171.315 366.184 171.055 366.934 170.536C367.684 170.007 368.059 169.364 368.059 168.605C368.059 167.991 367.829 167.476 367.369 167.058C366.917 166.641 366.223 166.325 365.285 166.112L361.961 165.384C360.129 164.966 358.774 164.301 357.896 163.389C357.027 162.477 356.592 161.322 356.592 159.925C356.592 158.766 356.916 157.751 357.564 156.882C358.211 156.013 359.106 155.335 360.248 154.849C361.39 154.355 362.699 154.108 364.173 154.108C366.295 154.108 367.966 154.568 369.184 155.489C370.403 156.401 371.208 157.624 371.6 159.158ZM385.353 154.364V157.432H374.627V154.364H385.353ZM377.504 149.659H381.326V168.234C381.326 168.976 381.437 169.534 381.658 169.909C381.88 170.276 382.165 170.527 382.515 170.663C382.873 170.791 383.261 170.855 383.678 170.855C383.985 170.855 384.254 170.834 384.484 170.791C384.714 170.749 384.893 170.714 385.021 170.689L385.711 173.847C385.489 173.932 385.174 174.017 384.765 174.102C384.356 174.196 383.844 174.247 383.231 174.256C382.225 174.273 381.288 174.094 380.418 173.719C379.549 173.344 378.846 172.764 378.309 171.98C377.772 171.196 377.504 170.212 377.504 169.027V149.659ZM395.296 174.435C394.051 174.435 392.926 174.205 391.921 173.744C390.915 173.276 390.118 172.598 389.53 171.712C388.951 170.825 388.661 169.739 388.661 168.452C388.661 167.344 388.874 166.432 389.3 165.716C389.726 165 390.301 164.433 391.026 164.016C391.75 163.598 392.56 163.283 393.455 163.07C394.35 162.857 395.262 162.695 396.191 162.584C397.367 162.447 398.321 162.337 399.054 162.251C399.787 162.158 400.32 162.009 400.652 161.804C400.985 161.599 401.151 161.267 401.151 160.807V160.717C401.151 159.601 400.836 158.736 400.205 158.122C399.583 157.509 398.654 157.202 397.418 157.202C396.131 157.202 395.117 157.487 394.375 158.058C393.642 158.621 393.135 159.247 392.854 159.938L389.262 159.119C389.688 157.926 390.31 156.963 391.128 156.23C391.955 155.489 392.905 154.952 393.979 154.619C395.053 154.278 396.182 154.108 397.367 154.108C398.151 154.108 398.982 154.202 399.86 154.389C400.746 154.568 401.573 154.901 402.34 155.386C403.115 155.872 403.75 156.567 404.245 157.47C404.739 158.365 404.986 159.528 404.986 160.96V174H401.253V171.315H401.1C400.853 171.81 400.482 172.295 399.988 172.773C399.493 173.25 398.858 173.646 398.083 173.962C397.307 174.277 396.378 174.435 395.296 174.435ZM396.127 171.366C397.184 171.366 398.087 171.158 398.837 170.74C399.596 170.322 400.171 169.777 400.563 169.104C400.963 168.422 401.164 167.693 401.164 166.918V164.386C401.027 164.523 400.763 164.651 400.371 164.77C399.988 164.881 399.549 164.979 399.054 165.064C398.56 165.141 398.078 165.213 397.61 165.281C397.141 165.341 396.749 165.392 396.434 165.435C395.692 165.528 395.015 165.686 394.401 165.908C393.796 166.129 393.31 166.449 392.944 166.866C392.586 167.276 392.407 167.821 392.407 168.503C392.407 169.449 392.756 170.165 393.455 170.651C394.154 171.128 395.044 171.366 396.127 171.366ZM410.077 174V154.364H413.772V157.483H413.977C414.335 156.426 414.965 155.595 415.869 154.99C416.781 154.376 417.812 154.07 418.962 154.07C419.201 154.07 419.482 154.078 419.806 154.095C420.138 154.112 420.398 154.134 420.586 154.159V157.815C420.433 157.773 420.16 157.726 419.768 157.675C419.376 157.615 418.984 157.585 418.592 157.585C417.688 157.585 416.883 157.777 416.175 158.161C415.477 158.536 414.923 159.06 414.513 159.733C414.104 160.398 413.9 161.156 413.9 162.009V174H410.077ZM434.22 154.364V157.432H423.494V154.364H434.22ZM426.371 149.659H430.193V168.234C430.193 168.976 430.304 169.534 430.526 169.909C430.747 170.276 431.033 170.527 431.382 170.663C431.74 170.791 432.128 170.855 432.545 170.855C432.852 170.855 433.121 170.834 433.351 170.791C433.581 170.749 433.76 170.714 433.888 170.689L434.578 173.847C434.357 173.932 434.041 174.017 433.632 174.102C433.223 174.196 432.712 174.247 432.098 174.256C431.092 174.273 430.155 174.094 429.286 173.719C428.416 173.344 427.713 172.764 427.176 171.98C426.639 171.196 426.371 170.212 426.371 169.027V149.659ZM457.321 154.364V157.432H446.224V154.364H457.321ZM449.267 174V152.088C449.267 150.861 449.536 149.842 450.072 149.033C450.609 148.214 451.321 147.605 452.207 147.205C453.094 146.795 454.057 146.591 455.097 146.591C455.864 146.591 456.52 146.655 457.065 146.783C457.611 146.902 458.016 147.013 458.28 147.115L457.385 150.209C457.206 150.158 456.976 150.098 456.695 150.03C456.413 149.953 456.072 149.915 455.672 149.915C454.743 149.915 454.078 150.145 453.678 150.605C453.286 151.065 453.089 151.73 453.089 152.599V174H449.267ZM468.763 174.396C466.922 174.396 465.315 173.974 463.943 173.131C462.571 172.287 461.506 171.107 460.747 169.589C459.989 168.072 459.609 166.3 459.609 164.271C459.609 162.234 459.989 160.453 460.747 158.928C461.506 157.402 462.571 156.217 463.943 155.374C465.315 154.53 466.922 154.108 468.763 154.108C470.604 154.108 472.21 154.53 473.582 155.374C474.955 156.217 476.02 157.402 476.778 158.928C477.537 160.453 477.916 162.234 477.916 164.271C477.916 166.3 477.537 168.072 476.778 169.589C476.02 171.107 474.955 172.287 473.582 173.131C472.21 173.974 470.604 174.396 468.763 174.396ZM468.776 171.188C469.969 171.188 470.957 170.872 471.741 170.241C472.526 169.611 473.105 168.771 473.48 167.723C473.864 166.675 474.055 165.52 474.055 164.259C474.055 163.006 473.864 161.855 473.48 160.807C473.105 159.75 472.526 158.902 471.741 158.263C470.957 157.624 469.969 157.304 468.776 157.304C467.574 157.304 466.577 157.624 465.784 158.263C465 158.902 464.416 159.75 464.033 160.807C463.658 161.855 463.47 163.006 463.47 164.259C463.47 165.52 463.658 166.675 464.033 167.723C464.416 168.771 465 169.611 465.784 170.241C466.577 170.872 467.574 171.188 468.776 171.188ZM482.183 174V154.364H485.877V157.483H486.082C486.44 156.426 487.071 155.595 487.974 154.99C488.886 154.376 489.917 154.07 491.068 154.07C491.306 154.07 491.588 154.078 491.912 154.095C492.244 154.112 492.504 154.134 492.691 154.159V157.815C492.538 157.773 492.265 157.726 491.873 157.675C491.481 157.615 491.089 157.585 490.697 157.585C489.794 157.585 488.988 157.777 488.281 158.161C487.582 158.536 487.028 159.06 486.619 159.733C486.21 160.398 486.005 161.156 486.005 162.009V174H482.183ZM508.045 174.243C507.346 174.243 506.745 173.996 506.243 173.501C505.74 172.999 505.488 172.393 505.488 171.686C505.488 170.987 505.74 170.391 506.243 169.896C506.745 169.393 507.346 169.142 508.045 169.142C508.744 169.142 509.345 169.393 509.848 169.896C510.35 170.391 510.602 170.987 510.602 171.686C510.602 172.155 510.483 172.585 510.244 172.977C510.014 173.361 509.707 173.668 509.324 173.898C508.94 174.128 508.514 174.243 508.045 174.243ZM537.161 147.818V174H533.53L520.222 154.798H519.979V174H516.029V147.818H519.685L533.006 167.045H533.249V147.818H537.161ZM542.923 174V147.818H559.338V151.219H546.874V159.196H558.482V162.584H546.874V170.599H559.491V174H542.923ZM563.324 151.219V147.818H583.586V151.219H575.417V174H571.48V151.219H563.324ZM599.803 174H595.61L605.032 147.818H609.596L619.017 174H614.824L607.422 152.574H607.218L599.803 174ZM600.506 163.747H614.108V167.071H600.506V163.747ZM622.491 181.364V154.364H626.224V157.547H626.544C626.766 157.138 627.085 156.665 627.503 156.128C627.92 155.591 628.5 155.122 629.241 154.722C629.983 154.312 630.963 154.108 632.182 154.108C633.767 154.108 635.182 154.509 636.426 155.31C637.67 156.111 638.646 157.266 639.354 158.774C640.07 160.283 640.428 162.098 640.428 164.22C640.428 166.342 640.074 168.162 639.366 169.679C638.659 171.187 637.688 172.351 636.452 173.169C635.216 173.979 633.805 174.384 632.22 174.384C631.027 174.384 630.051 174.183 629.293 173.783C628.543 173.382 627.955 172.913 627.528 172.376C627.102 171.839 626.774 171.362 626.544 170.945H626.314V181.364H622.491ZM626.237 164.182C626.237 165.562 626.438 166.773 626.838 167.812C627.239 168.852 627.818 169.666 628.577 170.254C629.335 170.834 630.264 171.124 631.364 171.124C632.506 171.124 633.46 170.821 634.227 170.216C634.994 169.602 635.574 168.771 635.966 167.723C636.366 166.675 636.567 165.494 636.567 164.182C636.567 162.886 636.371 161.723 635.979 160.692C635.595 159.661 635.016 158.847 634.24 158.25C633.473 157.653 632.514 157.355 631.364 157.355C630.256 157.355 629.318 157.641 628.551 158.212C627.793 158.783 627.217 159.58 626.825 160.602C626.433 161.625 626.237 162.818 626.237 164.182ZM644.71 174V154.364H648.533V174H644.71ZM646.641 151.334C645.976 151.334 645.405 151.112 644.928 150.669C644.459 150.217 644.224 149.68 644.224 149.058C644.224 148.428 644.459 147.891 644.928 147.447C645.405 146.996 645.976 146.77 646.641 146.77C647.305 146.77 647.872 146.996 648.341 147.447C648.818 147.891 649.057 148.428 649.057 149.058C649.057 149.68 648.818 150.217 648.341 150.669C647.872 151.112 647.305 151.334 646.641 151.334ZM665.721 174H661.528L670.95 147.818H675.513L684.935 174H680.742L673.34 152.574H673.136L665.721 174ZM666.424 163.747H680.026V167.071H666.424V163.747ZM700.848 165.857V154.364H704.684V174H700.925V170.599H700.721C700.269 171.648 699.544 172.521 698.547 173.22C697.559 173.911 696.327 174.256 694.853 174.256C693.591 174.256 692.475 173.979 691.503 173.425C690.54 172.862 689.782 172.031 689.228 170.932C688.682 169.832 688.409 168.473 688.409 166.854V154.364H692.232V166.393C692.232 167.732 692.603 168.797 693.344 169.589C694.086 170.382 695.049 170.778 696.233 170.778C696.949 170.778 697.661 170.599 698.368 170.241C699.084 169.884 699.676 169.342 700.145 168.618C700.623 167.893 700.857 166.973 700.848 165.857ZM718.986 154.364V157.432H708.26V154.364H718.986ZM711.136 149.659H714.959V168.234C714.959 168.976 715.07 169.534 715.291 169.909C715.513 170.276 715.798 170.527 716.148 170.663C716.506 170.791 716.893 170.855 717.311 170.855C717.618 170.855 717.886 170.834 718.116 170.791C718.347 170.749 718.526 170.714 718.653 170.689L719.344 173.847C719.122 173.932 718.807 174.017 718.398 174.102C717.989 174.196 717.477 174.247 716.864 174.256C715.858 174.273 714.92 174.094 714.051 173.719C713.182 173.344 712.479 172.764 711.942 171.98C711.405 171.196 711.136 170.212 711.136 169.027V149.659ZM727.458 162.341V174H723.636V147.818H727.407V157.56H727.65C728.11 156.503 728.814 155.663 729.76 155.041C730.706 154.419 731.941 154.108 733.467 154.108C734.814 154.108 735.99 154.385 736.995 154.939C738.01 155.493 738.794 156.32 739.348 157.419C739.91 158.51 740.191 159.874 740.191 161.51V174H736.369V161.97C736.369 160.53 735.998 159.413 735.257 158.621C734.515 157.82 733.484 157.419 732.163 157.419C731.26 157.419 730.45 157.611 729.734 157.994C729.027 158.378 728.468 158.94 728.059 159.682C727.659 160.415 727.458 161.301 727.458 162.341ZM753.755 174.396C751.821 174.396 750.154 173.983 748.757 173.156C747.368 172.321 746.294 171.149 745.535 169.641C744.785 168.124 744.41 166.347 744.41 164.31C744.41 162.298 744.785 160.526 745.535 158.991C746.294 157.457 747.35 156.26 748.706 155.399C750.069 154.538 751.663 154.108 753.487 154.108C754.595 154.108 755.669 154.291 756.708 154.658C757.748 155.024 758.681 155.599 759.508 156.384C760.335 157.168 760.987 158.186 761.464 159.439C761.941 160.683 762.18 162.196 762.18 163.977V165.332H746.571V162.469H758.434C758.434 161.463 758.23 160.572 757.821 159.797C757.412 159.013 756.836 158.395 756.095 157.943C755.362 157.491 754.501 157.266 753.512 157.266C752.439 157.266 751.501 157.53 750.7 158.058C749.907 158.578 749.294 159.26 748.859 160.104C748.433 160.939 748.22 161.847 748.22 162.827V165.064C748.22 166.376 748.45 167.493 748.91 168.413C749.379 169.334 750.031 170.037 750.866 170.523C751.701 171 752.677 171.239 753.794 171.239C754.518 171.239 755.179 171.136 755.775 170.932C756.372 170.719 756.887 170.403 757.322 169.986C757.757 169.568 758.089 169.053 758.319 168.439L761.937 169.091C761.647 170.156 761.127 171.089 760.377 171.891C759.636 172.683 758.703 173.301 757.578 173.744C756.461 174.179 755.187 174.396 753.755 174.396ZM770.244 162.341V174H766.421V154.364H770.09V157.56H770.333C770.785 156.52 771.492 155.685 772.455 155.054C773.427 154.423 774.65 154.108 776.124 154.108C777.462 154.108 778.634 154.389 779.64 154.952C780.646 155.506 781.425 156.332 781.979 157.432C782.533 158.531 782.81 159.891 782.81 161.51V174H778.988V161.97C778.988 160.547 778.617 159.435 777.876 158.634C777.134 157.824 776.116 157.419 774.82 157.419C773.934 157.419 773.146 157.611 772.455 157.994C771.773 158.378 771.232 158.94 770.832 159.682C770.44 160.415 770.244 161.301 770.244 162.341ZM797.103 154.364V157.432H786.377V154.364H797.103ZM789.254 149.659H793.076V168.234C793.076 168.976 793.187 169.534 793.408 169.909C793.63 170.276 793.915 170.527 794.265 170.663C794.623 170.791 795.011 170.855 795.428 170.855C795.735 170.855 796.004 170.834 796.234 170.791C796.464 170.749 796.643 170.714 796.771 170.689L797.461 173.847C797.239 173.932 796.924 174.017 796.515 174.102C796.106 174.196 795.594 174.247 794.981 174.256C793.975 174.273 793.038 174.094 792.168 173.719C791.299 173.344 790.596 172.764 790.059 171.98C789.522 171.196 789.254 170.212 789.254 169.027V149.659ZM801.331 174V154.364H805.154V174H801.331ZM803.262 151.334C802.597 151.334 802.026 151.112 801.549 150.669C801.08 150.217 800.846 149.68 800.846 149.058C800.846 148.428 801.08 147.891 801.549 147.447C802.026 146.996 802.597 146.77 803.262 146.77C803.926 146.77 804.493 146.996 804.962 147.447C805.439 147.891 805.678 148.428 805.678 149.058C805.678 149.68 805.439 150.217 804.962 150.669C804.493 151.112 803.926 151.334 803.262 151.334ZM818.567 174.396C816.667 174.396 815.031 173.966 813.658 173.105C812.295 172.236 811.246 171.038 810.513 169.513C809.781 167.987 809.414 166.24 809.414 164.271C809.414 162.277 809.789 160.517 810.539 158.991C811.289 157.457 812.346 156.26 813.71 155.399C815.073 154.538 816.68 154.108 818.529 154.108C820.021 154.108 821.35 154.385 822.518 154.939C823.685 155.484 824.627 156.251 825.343 157.24C826.067 158.229 826.498 159.384 826.634 160.705H822.914C822.71 159.784 822.241 158.991 821.508 158.327C820.783 157.662 819.812 157.33 818.593 157.33C817.528 157.33 816.594 157.611 815.793 158.173C815.001 158.727 814.383 159.52 813.94 160.551C813.496 161.574 813.275 162.784 813.275 164.182C813.275 165.614 813.492 166.849 813.927 167.889C814.362 168.929 814.975 169.734 815.768 170.305C816.569 170.876 817.511 171.162 818.593 171.162C819.317 171.162 819.974 171.03 820.562 170.766C821.158 170.493 821.657 170.105 822.058 169.602C822.467 169.099 822.752 168.494 822.914 167.787H826.634C826.498 169.057 826.085 170.19 825.394 171.188C824.704 172.185 823.779 172.969 822.62 173.54C821.469 174.111 820.119 174.396 818.567 174.396ZM836.436 174.435C835.192 174.435 834.067 174.205 833.061 173.744C832.056 173.276 831.259 172.598 830.671 171.712C830.091 170.825 829.801 169.739 829.801 168.452C829.801 167.344 830.015 166.432 830.441 165.716C830.867 165 831.442 164.433 832.167 164.016C832.891 163.598 833.701 163.283 834.596 163.07C835.49 162.857 836.402 162.695 837.331 162.584C838.507 162.447 839.462 162.337 840.195 162.251C840.928 162.158 841.461 162.009 841.793 161.804C842.125 161.599 842.292 161.267 842.292 160.807V160.717C842.292 159.601 841.976 158.736 841.346 158.122C840.723 157.509 839.794 157.202 838.559 157.202C837.272 157.202 836.257 157.487 835.516 158.058C834.783 158.621 834.276 159.247 833.995 159.938L830.402 159.119C830.828 157.926 831.451 156.963 832.269 156.23C833.096 155.489 834.046 154.952 835.12 154.619C836.194 154.278 837.323 154.108 838.507 154.108C839.292 154.108 840.123 154.202 841 154.389C841.887 154.568 842.713 154.901 843.48 155.386C844.256 155.872 844.891 156.567 845.385 157.47C845.88 158.365 846.127 159.528 846.127 160.96V174H842.394V171.315H842.24C841.993 171.81 841.623 172.295 841.128 172.773C840.634 173.25 839.999 173.646 839.223 173.962C838.448 174.277 837.519 174.435 836.436 174.435ZM837.267 171.366C838.324 171.366 839.228 171.158 839.978 170.74C840.736 170.322 841.311 169.777 841.703 169.104C842.104 168.422 842.304 167.693 842.304 166.918V164.386C842.168 164.523 841.904 164.651 841.512 164.77C841.128 164.881 840.689 164.979 840.195 165.064C839.701 165.141 839.219 165.213 838.75 165.281C838.282 165.341 837.89 165.392 837.574 165.435C836.833 165.528 836.155 165.686 835.542 165.908C834.936 166.129 834.451 166.449 834.084 166.866C833.726 167.276 833.547 167.821 833.547 168.503C833.547 169.449 833.897 170.165 834.596 170.651C835.294 171.128 836.185 171.366 837.267 171.366ZM860.384 154.364V157.432H849.658V154.364H860.384ZM852.535 149.659H856.357V168.234C856.357 168.976 856.468 169.534 856.69 169.909C856.911 170.276 857.197 170.527 857.546 170.663C857.904 170.791 858.292 170.855 858.71 170.855C859.016 170.855 859.285 170.834 859.515 170.791C859.745 170.749 859.924 170.714 860.052 170.689L860.742 173.847C860.521 173.932 860.205 174.017 859.796 174.102C859.387 174.196 858.876 174.247 858.262 174.256C857.256 174.273 856.319 174.094 855.45 173.719C854.58 173.344 853.877 172.764 853.34 171.98C852.803 171.196 852.535 170.212 852.535 169.027V149.659ZM864.613 174V154.364H868.435V174H864.613ZM866.543 151.334C865.878 151.334 865.307 151.112 864.83 150.669C864.361 150.217 864.127 149.68 864.127 149.058C864.127 148.428 864.361 147.891 864.83 147.447C865.307 146.996 865.878 146.77 866.543 146.77C867.208 146.77 867.775 146.996 868.243 147.447C868.721 147.891 868.959 148.428 868.959 149.058C868.959 149.68 868.721 150.217 868.243 150.669C867.775 151.112 867.208 151.334 866.543 151.334ZM881.849 174.396C880.008 174.396 878.401 173.974 877.029 173.131C875.657 172.287 874.592 171.107 873.833 169.589C873.075 168.072 872.695 166.3 872.695 164.271C872.695 162.234 873.075 160.453 873.833 158.928C874.592 157.402 875.657 156.217 877.029 155.374C878.401 154.53 880.008 154.108 881.849 154.108C883.69 154.108 885.296 154.53 886.668 155.374C888.04 156.217 889.106 157.402 889.864 158.928C890.623 160.453 891.002 162.234 891.002 164.271C891.002 166.3 890.623 168.072 889.864 169.589C889.106 171.107 888.04 172.287 886.668 173.131C885.296 173.974 883.69 174.396 881.849 174.396ZM881.862 171.188C883.055 171.188 884.043 170.872 884.827 170.241C885.612 169.611 886.191 168.771 886.566 167.723C886.95 166.675 887.141 165.52 887.141 164.259C887.141 163.006 886.95 161.855 886.566 160.807C886.191 159.75 885.612 158.902 884.827 158.263C884.043 157.624 883.055 157.304 881.862 157.304C880.66 157.304 879.663 157.624 878.87 158.263C878.086 158.902 877.502 159.75 877.119 160.807C876.744 161.855 876.556 163.006 876.556 164.259C876.556 165.52 876.744 166.675 877.119 167.723C877.502 168.771 878.086 169.611 878.87 170.241C879.663 170.872 880.66 171.188 881.862 171.188ZM899.091 162.341V174H895.269V154.364H898.938V157.56H899.181C899.632 156.52 900.34 155.685 901.303 155.054C902.275 154.423 903.498 154.108 904.972 154.108C906.31 154.108 907.482 154.389 908.488 154.952C909.493 155.506 910.273 156.332 910.827 157.432C911.381 158.531 911.658 159.891 911.658 161.51V174H907.836V161.97C907.836 160.547 907.465 159.435 906.723 158.634C905.982 157.824 904.963 157.419 903.668 157.419C902.782 157.419 901.993 157.611 901.303 157.994C900.621 158.378 900.08 158.94 899.679 159.682C899.287 160.415 899.091 161.301 899.091 162.341Z" fill="#FCFCFC"/>
<g clip-path="url(#clip4_3491_5090)">
<path d="M1040.13 46.1636C1038.98 43.5454 1036.75 44.9272 1035.4 46.7454L1033.49 50.0545L1046.18 71.9999H1055L1040.13 46.1636Z" fill="url(#paint0_linear_3491_5090)"/>
<path d="M1024.13 42.8182C1022 40.2364 1017.87 39.2909 1014.78 40.7819C1013.29 41.4728 1012.05 42.5455 1011.18 44.0364C1011.18 44.0546 995 72 995 72H1004.05L1018.09 48.0182L1019.25 46C1019.47 45.6364 1021.93 41.5091 1024.13 42.8182Z" fill="url(#paint1_linear_3491_5090)"/>
<path d="M1013.84 67.4726C1014.33 68.2545 1018.11 75.1272 1018.67 75.5999C1020.96 76.5999 1022.53 72.7454 1023.49 71.2363L1017.64 61.0908L1013.84 67.4726Z" fill="url(#paint2_linear_3491_5090)"/>
<path d="M1031.96 61.0908L1025.33 72.5999C1025.33 72.5999 1022.47 78.6908 1019.87 77.5454C1021.31 79.1635 1023.44 80.0726 1025.6 79.9999C1028.09 79.8908 1030.38 78.5454 1031.65 76.3454L1036.27 68.3272C1036.22 68.2363 1032.02 61.1635 1031.96 61.0908Z" fill="url(#paint3_linear_3491_5090)"/>
<path d="M1037.8 42.5999C1035.47 39.8908 1031.24 39.1818 1028.18 41.0363C1025.29 42.4908 1022.4 49.5454 1020.62 52.1272C1020.65 52.1999 1025.04 59.7636 1025.07 59.8363C1026.71 56.9999 1030.45 50.509 1032.05 47.7454C1033.16 45.9272 1035.07 41.2908 1037.8 42.5999Z" fill="url(#paint4_linear_3491_5090)"/>
<path d="M1024.76 44.8545C1023.15 47.4364 1021.67 50.6 1020.62 52.1273L1019.38 50C1020.16 48.5454 1022.62 44.0364 1024.76 44.8545Z" fill="url(#paint5_linear_3491_5090)"/>
<path d="M1085.45 54.3093C1084.31 54.2911 1083.18 54.5456 1082.16 55.0547C1081.15 55.5638 1080.25 56.3274 1079.6 57.2547C1078.96 56.3274 1078.09 55.582 1077.09 55.0729C1076.09 54.5638 1074.96 54.3093 1073.84 54.3274C1069.35 54.3274 1066.29 57.9456 1066.29 63.3093V71.982H1069.75V63.3093C1069.75 59.8184 1071.29 57.7456 1073.87 57.7456C1076.45 57.7456 1077.93 59.8911 1077.93 63.3093V71.982H1081.2V63.3093C1081.2 59.8184 1082.75 57.7456 1085.35 57.7456C1087.95 57.7456 1089.38 59.8911 1089.38 63.3093V71.982H1092.84V63.3093C1092.85 57.9274 1089.89 54.3093 1085.45 54.3093Z" fill="white"/>
<path d="M1103.62 54.0183C1098.64 54.0183 1095 57.8001 1095 63.0001C1095 68.2001 1098.62 71.9819 1103.62 71.9819C1108.62 71.9819 1112.24 68.2001 1112.24 63.0001C1112.24 57.8001 1108.58 54.0183 1103.62 54.0183ZM1103.62 68.5638C1100.56 68.5638 1098.44 66.291 1098.44 63.0001C1098.44 59.7092 1100.51 57.4365 1103.62 57.4365C1106.71 57.4365 1108.76 59.6729 1108.76 63.0001C1108.76 66.3274 1106.64 68.5638 1103.62 68.5638Z" fill="white"/>
<path d="M1122.4 54.3093C1117.87 54.3093 1114.45 58.1639 1114.45 63.2911V71.9639H1117.91V63.2911C1117.91 60.073 1119.76 57.7275 1122.42 57.7275C1125.07 57.7275 1126.82 60.073 1126.82 63.2911V71.9639H1130.27V63.2911C1130.31 58.1821 1126.91 54.3093 1122.4 54.3093Z" fill="white"/>
<path d="M1141 54.0183C1136.02 54.0183 1132.38 57.8001 1132.38 63.0001C1132.38 68.2001 1136 72.0001 1141 72.0001C1146 72.0001 1149.56 68.2183 1149.56 63.0183C1149.56 57.8183 1145.96 54.0183 1141 54.0183ZM1141 68.5638C1137.95 68.5638 1135.82 66.291 1135.82 63.0001C1135.82 59.7092 1137.91 57.4365 1141 57.4365C1144.09 57.4365 1146.15 59.6729 1146.15 63.0001C1146.15 66.3274 1144.04 68.5638 1141 68.5638Z" fill="white"/>
<path d="M1160.51 68.5273C1159.8 68.5273 1159.09 68.4 1158.44 68.1091C1157.78 67.8364 1157.18 67.4182 1156.69 66.9091C1156.2 66.4 1155.82 65.7819 1155.56 65.1091C1155.31 64.4364 1155.22 63.7273 1155.25 63.0182C1155.22 62.3091 1155.31 61.6 1155.56 60.9273C1155.82 60.2546 1156.18 59.6364 1156.69 59.1273C1157.18 58.6182 1157.78 58.2 1158.44 57.9273C1159.09 57.6546 1159.8 57.5091 1160.51 57.5091C1161.55 57.4364 1162.58 57.7091 1163.44 58.2909C1164.29 58.8728 1164.95 59.7273 1165.25 60.7091H1168.8C1168.45 58.8 1167.42 57.0728 1165.89 55.8728C1164.36 54.6728 1162.45 54.0546 1160.51 54.1455C1159.35 54.1273 1158.2 54.3455 1157.11 54.8C1156.04 55.2364 1155.05 55.9091 1154.25 56.7455C1153.45 57.5819 1152.82 58.5637 1152.4 59.6546C1151.98 60.7455 1151.8 61.8909 1151.85 63.0546C1151.82 64.2182 1152 65.3637 1152.42 66.4546C1152.84 67.5273 1153.45 68.5273 1154.27 69.3455C1155.07 70.1819 1156.05 70.8364 1157.13 71.291C1158.2 71.7455 1159.35 71.9637 1160.51 71.9637C1162.51 72.0364 1164.45 71.3819 1165.98 70.1091C1167.53 68.8364 1168.55 67.0546 1168.85 65.091H1165.35C1165.05 66.1273 1164.42 67.0364 1163.55 67.6728C1162.65 68.2728 1161.6 68.5819 1160.51 68.5273Z" fill="white"/>
<path d="M1174.45 48.3455H1171.18V71.8H1174.45V48.3455Z" fill="white"/>
<path d="M1185.33 54.0183C1180.35 54.0183 1176.71 57.8001 1176.71 63.0001C1176.71 68.2001 1180.33 71.9819 1185.33 71.9819C1190.33 71.9819 1193.89 68.2001 1193.89 63.0001C1193.89 57.8001 1190.29 54.0183 1185.33 54.0183ZM1185.33 68.5638C1182.27 68.5638 1180.15 66.291 1180.15 63.0001C1180.15 59.7092 1182.22 57.4365 1185.33 57.4365C1188.42 57.4365 1190.53 59.691 1190.53 63.0001C1190.53 66.3092 1188.36 68.5638 1185.33 68.5638Z" fill="white"/>
<path d="M1208.64 63.0182C1208.64 66.2364 1206.69 68.5818 1204.15 68.5818C1201.6 68.5818 1199.55 66.2546 1199.55 63.0182V54.3455H1196.09V63.0182C1196.09 68.1273 1199.53 72 1204.07 72C1208.64 72 1211.91 68.1273 1211.91 63.0182V54.3455H1208.64V63.0182Z" fill="white"/>
<path d="M1227.91 47.9819V55.9638C1226.42 54.6365 1224.49 53.891 1222.47 53.9092C1217.65 53.9092 1214.04 57.7638 1214.04 62.891C1214.04 68.0183 1217.67 71.8728 1222.67 71.8728C1227.67 71.8728 1231.36 68.091 1231.36 62.891V47.9819H1227.91ZM1222.65 68.5638C1219.13 68.5638 1217.51 65.691 1217.51 63.0001C1217.45 62.291 1217.55 61.5819 1217.78 60.9092C1218.02 60.2365 1218.38 59.6183 1218.87 59.091C1219.36 58.5638 1219.95 58.1456 1220.6 57.8728C1221.25 57.5819 1221.96 57.4365 1222.67 57.4365C1223.38 57.4365 1224.09 57.5819 1224.75 57.8728C1225.4 58.1638 1225.98 58.5819 1226.47 59.091C1226.96 59.6183 1227.33 60.2365 1227.56 60.9092C1227.8 61.5819 1227.89 62.291 1227.84 63.0001C1227.84 65.7638 1226.24 68.5638 1222.65 68.5638Z" fill="white"/>
</g>
</g>
<defs>
<filter id="filter0_f_3491_5090" x="-88.7158" y="-375.049" width="1589.68" height="975.591" filterUnits="userSpaceOnUse" color-interpolation-filters="sRGB">
<feFlood flood-opacity="0" result="BackgroundImageFix"/>
<feBlend mode="normal" in="SourceGraphic" in2="BackgroundImageFix" result="shape"/>
<feGaussianBlur stdDeviation="150" result="effect1_foregroundBlur_3491_5090"/>
</filter>
<filter id="filter1_f_3491_5090" x="608" y="-57" width="1238" height="1128" filterUnits="userSpaceOnUse" color-interpolation-filters="sRGB">
<feFlood flood-opacity="0" result="BackgroundImageFix"/>
<feBlend mode="normal" in="SourceGraphic" in2="BackgroundImageFix" result="shape"/>
<feGaussianBlur stdDeviation="110" result="effect1_foregroundBlur_3491_5090"/>
</filter>
<filter id="filter2_f_3491_5090" x="-800" y="-800" width="1234" height="1234" filterUnits="userSpaceOnUse" color-interpolation-filters="sRGB">
<feFlood flood-opacity="0" result="BackgroundImageFix"/>
<feBlend mode="normal" in="SourceGraphic" in2="BackgroundImageFix" result="shape"/>
<feGaussianBlur stdDeviation="125" result="effect1_foregroundBlur_3491_5090"/>
</filter>
<linearGradient id="paint0_linear_3491_5090" x1="1023.23" y1="59.6691" x2="1071.37" y2="56.9646" gradientUnits="userSpaceOnUse">
<stop stop-color="#0586FD"/>
<stop offset="0.88" stop-color="#111FFF"/>
</linearGradient>
<linearGradient id="paint1_linear_3491_5090" x1="990.031" y1="84.2775" x2="1042.16" y2="7.1637" gradientUnits="userSpaceOnUse">
<stop stop-color="#0586FD"/>
<stop offset="0.88" stop-color="#111FFF"/>
</linearGradient>
<linearGradient id="paint2_linear_3491_5090" x1="992.557" y1="90.2186" x2="1061.97" y2="32.7357" gradientUnits="userSpaceOnUse">
<stop stop-color="#0586FD"/>
<stop offset="0.88" stop-color="#111FFF"/>
</linearGradient>
<linearGradient id="paint3_linear_3491_5090" x1="1006.62" y1="91.7521" x2="1058.09" y2="45.1592" gradientUnits="userSpaceOnUse">
<stop stop-color="#0586FD"/>
<stop offset="0.88" stop-color="#111FFF"/>
</linearGradient>
<linearGradient id="paint4_linear_3491_5090" x1="1021.11" y1="63.3361" x2="1040.6" y2="24.9081" gradientUnits="userSpaceOnUse">
<stop stop-color="#0586FD"/>
<stop offset="0.88" stop-color="#111FFF"/>
</linearGradient>
<linearGradient id="paint5_linear_3491_5090" x1="965.111" y1="89.4961" x2="1058.67" y2="22.0914" gradientUnits="userSpaceOnUse">
<stop stop-color="#0586FD"/>
<stop offset="0.88" stop-color="#111FFF"/>
</linearGradient>
<clipPath id="clip0_3491_5090">
<path d="M0 20C0 8.9543 8.95431 0 20 0H1260C1271.05 0 1280 8.95431 1280 20V205C1280 216.046 1271.05 225 1260 225H20C8.95431 225 0 216.046 0 205V20Z" fill="white"/>
</clipPath>
<clipPath id="clip1_3491_5090">
<path d="M48 57C48 50.3726 53.3726 45 60 45H116C122.627 45 128 50.3726 128 57V113C128 119.627 122.627 125 116 125H60C53.3726 125 48 119.627 48 113V57Z" fill="white"/>
</clipPath>
<clipPath id="clip2_3491_5090">
<rect width="80" height="80" fill="white" transform="translate(48 45)"/>
</clipPath>
<clipPath id="clip3_3491_5090">
<path d="M48 85C48 62.9086 65.9086 45 88 45V45C110.091 45 128 62.9086 128 85V85C128 107.091 110.091 125 88 125V125C65.9086 125 48 107.091 48 85V85Z" fill="white"/>
</clipPath>
<clipPath id="clip4_3491_5090">
<rect width="236.364" height="40" fill="white" transform="translate(995 40)"/>
</clipPath>
</defs>
</svg>
