<svg width="1280" height="225" viewBox="0 0 1280 225" fill="none" xmlns="http://www.w3.org/2000/svg">
<g clip-path="url(#clip0_3409_5056)">
<path d="M0 20C0 8.9543 8.95431 0 20 0H1260C1271.05 0 1280 8.95431 1280 20V205C1280 216.046 1271.05 225 1260 225H20C8.95431 225 0 216.046 0 205V20Z" fill="#0F1832"/>
<g filter="url(#filter0_f_3409_5056)">
<path d="M1062.46 53.6321C670.717 -179.405 333.235 -43.4902 213.463 53.5969C183.817 175.462 464.053 266.45 607.877 296.712C922.634 312.784 1454.21 286.669 1062.46 53.6321Z" fill="#0231FF" fill-opacity="0.7"/>
</g>
<g filter="url(#filter1_f_3409_5056)">
<path d="M922.306 350.119C777.53 493.098 831.106 686.374 875.992 765.14C875.992 894.685 1324.56 863.498 1504.67 765.14C1684.78 666.783 1609.31 521.645 1615.31 350.119C1620.12 212.898 1423.48 168.198 1324.56 163C1250.8 165.799 1067.08 207.141 922.306 350.119Z" fill="#6C01DB"/>
</g>
<path d="M-863.165 -544.181C-859.655 -577.9 -823.242 -597.454 -793.194 -581.753L1716.64 729.65C1750.79 747.489 1751.06 796.256 1717.12 814.481L-1085.92 2319.65C-1119.86 2337.88 -1160.36 2310.71 -1156.37 2272.39L-863.165 -544.181Z" fill="#6F5AC8" fill-opacity="0.1"/>
<path d="M-863.165 -624.181C-859.655 -657.9 -823.242 -677.454 -793.194 -661.753L1716.64 649.65C1750.79 667.489 1751.06 716.256 1717.12 734.481L-1085.92 2239.65C-1119.86 2257.88 -1160.36 2230.71 -1156.37 2192.39L-863.165 -624.181Z" fill="#6F5AC8" fill-opacity="0.1"/>
<path d="M-863.165 -700.181C-859.655 -733.9 -823.242 -753.454 -793.194 -737.753L1716.64 573.65C1750.79 591.489 1751.06 640.256 1717.12 658.481L-1085.92 2163.65C-1119.86 2181.88 -1160.36 2154.71 -1156.37 2116.39L-863.165 -700.181Z" fill="#6F5AC8" fill-opacity="0.1"/>
<path d="M-863.165 -775.181C-859.655 -808.9 -823.242 -828.454 -793.194 -812.753L1716.64 498.65C1750.79 516.489 1751.06 565.256 1717.12 583.481L-1085.92 2088.65C-1119.86 2106.88 -1160.36 2079.71 -1156.37 2041.39L-863.165 -775.181Z" fill="#6F5AC8" fill-opacity="0.1"/>
<path d="M-863.165 -850.181C-859.655 -883.9 -823.242 -903.454 -793.194 -887.753L1716.64 423.65C1750.79 441.489 1751.06 490.256 1717.12 508.481L-1085.92 2013.65C-1119.86 2031.88 -1160.36 2004.71 -1156.37 1966.39L-863.165 -850.181Z" fill="#6F5AC8" fill-opacity="0.1"/>
<path d="M-724.802 -850.181C-721.291 -883.9 -684.878 -903.454 -654.831 -887.753L1855.01 423.65C1889.15 441.489 1889.42 490.256 1855.49 508.481L-947.554 2013.65C-981.493 2031.88 -1021.99 2004.71 -1018 1966.39L-724.802 -850.181Z" fill="#6F5AC8" fill-opacity="0.1"/>
<g filter="url(#filter2_f_3409_5056)">
<circle cx="-183" cy="-183" r="367" fill="#031150"/>
</g>
<g clip-path="url(#clip1_3409_5056)">
<path d="M48 57C48 50.3726 53.3726 45 60 45H116C122.627 45 128 50.3726 128 57V113C128 119.627 122.627 125 116 125H60C53.3726 125 48 119.627 48 113V57Z" fill="white"/>
<g clip-path="url(#clip2_3409_5056)">
<rect width="80" height="80" transform="translate(48 45)" fill="#512BD4"/>
<g clip-path="url(#clip3_3409_5056)">
<path d="M128 45H48V125H128V45Z" fill="#512BD4"/>
<path d="M62.259 96.11C61.6934 96.11 61.2126 95.9216 60.8166 95.5446C60.4206 95.1579 60.2227 94.6988 60.2227 94.1672C60.2227 93.6258 60.4206 93.162 60.8166 92.7753C61.2126 92.3886 61.6934 92.1953 62.259 92.1953C62.8341 92.1953 63.3196 92.3886 63.7156 92.7753C64.121 93.162 64.3237 93.6258 64.3237 94.1672C64.3237 94.6988 64.121 95.1579 63.7156 95.5446C63.3196 95.9216 62.8341 96.11 62.259 96.11Z" fill="white"/>
<path d="M84.8719 95.7921H81.1951L71.5082 80.5098C71.2632 80.1232 71.0603 79.7219 70.9002 79.3063H70.8153C70.8907 79.7511 70.9284 80.7032 70.9284 82.1626V95.7921H67.6758V75H71.593L80.9547 89.9198C81.3507 90.5386 81.6053 90.9639 81.7184 91.1958H81.7749C81.6807 90.6449 81.6335 89.7121 81.6335 88.3974V75H84.8719V95.7921Z" fill="white"/>
<path d="M100.71 95.7921H89.3262V75H100.258V77.9289H92.692V83.8156H99.6637V86.73H92.692V92.8777H100.71V95.7921Z" fill="white"/>
<path d="M116.889 77.9289H111.063V95.7921H107.697V77.9289H101.885V75H116.889V77.9289Z" fill="white"/>
</g>
</g>
</g>
<path d="M50.8764 147.818H55.6705L64.0057 168.17H64.3125L72.6477 147.818H77.4418V174H73.6832V155.054H73.4403L65.7188 173.962H62.5994L54.8778 155.041H54.6349V174H50.8764V147.818ZM91.1495 174.396C89.3086 174.396 87.7021 173.974 86.3299 173.131C84.9577 172.287 83.8924 171.107 83.1339 169.589C82.3754 168.072 81.9961 166.3 81.9961 164.271C81.9961 162.234 82.3754 160.453 83.1339 158.928C83.8924 157.402 84.9577 156.217 86.3299 155.374C87.7021 154.53 89.3086 154.108 91.1495 154.108C92.9904 154.108 94.5969 154.53 95.9691 155.374C97.3413 156.217 98.4066 157.402 99.1651 158.928C99.9237 160.453 100.303 162.234 100.303 164.271C100.303 166.3 99.9237 168.072 99.1651 169.589C98.4066 171.107 97.3413 172.287 95.9691 173.131C94.5969 173.974 92.9904 174.396 91.1495 174.396ZM91.1623 171.188C92.3555 171.188 93.3441 170.872 94.1282 170.241C94.9123 169.611 95.4918 168.771 95.8668 167.723C96.2504 166.675 96.4421 165.52 96.4421 164.259C96.4421 163.006 96.2504 161.855 95.8668 160.807C95.4918 159.75 94.9123 158.902 94.1282 158.263C93.3441 157.624 92.3555 157.304 91.1623 157.304C89.9606 157.304 88.9634 157.624 88.1708 158.263C87.3867 158.902 86.8029 159.75 86.4194 160.807C86.0444 161.855 85.8569 163.006 85.8569 164.259C85.8569 165.52 86.0444 166.675 86.4194 167.723C86.8029 168.771 87.3867 169.611 88.1708 170.241C88.9634 170.872 89.9606 171.188 91.1623 171.188ZM108.392 162.341V174H104.57V154.364H108.239V157.56H108.482C108.933 156.52 109.641 155.685 110.604 155.054C111.575 154.423 112.798 154.108 114.273 154.108C115.611 154.108 116.783 154.389 117.788 154.952C118.794 155.506 119.574 156.332 120.128 157.432C120.682 158.531 120.959 159.891 120.959 161.51V174H117.136V161.97C117.136 160.547 116.766 159.435 116.024 158.634C115.283 157.824 114.264 157.419 112.969 157.419C112.082 157.419 111.294 157.611 110.604 157.994C109.922 158.378 109.381 158.94 108.98 159.682C108.588 160.415 108.392 161.301 108.392 162.341ZM134.357 174.396C132.516 174.396 130.909 173.974 129.537 173.131C128.165 172.287 127.099 171.107 126.341 169.589C125.582 168.072 125.203 166.3 125.203 164.271C125.203 162.234 125.582 160.453 126.341 158.928C127.099 157.402 128.165 156.217 129.537 155.374C130.909 154.53 132.516 154.108 134.357 154.108C136.197 154.108 137.804 154.53 139.176 155.374C140.548 156.217 141.614 157.402 142.372 158.928C143.131 160.453 143.51 162.234 143.51 164.271C143.51 166.3 143.131 168.072 142.372 169.589C141.614 171.107 140.548 172.287 139.176 173.131C137.804 173.974 136.197 174.396 134.357 174.396ZM134.369 171.188C135.563 171.188 136.551 170.872 137.335 170.241C138.119 169.611 138.699 168.771 139.074 167.723C139.457 166.675 139.649 165.52 139.649 164.259C139.649 163.006 139.457 161.855 139.074 160.807C138.699 159.75 138.119 158.902 137.335 158.263C136.551 157.624 135.563 157.304 134.369 157.304C133.168 157.304 132.17 157.624 131.378 158.263C130.594 158.902 130.01 159.75 129.626 160.807C129.251 161.855 129.064 163.006 129.064 164.259C129.064 165.52 129.251 166.675 129.626 167.723C130.01 168.771 130.594 169.611 131.378 170.241C132.17 170.872 133.168 171.188 134.369 171.188ZM169.829 156.332H165.841C165.687 155.48 165.402 154.73 164.984 154.082C164.566 153.435 164.055 152.885 163.45 152.433C162.845 151.982 162.167 151.641 161.417 151.411C160.676 151.18 159.887 151.065 159.052 151.065C157.544 151.065 156.193 151.445 155 152.203C153.815 152.962 152.877 154.074 152.187 155.54C151.505 157.006 151.164 158.795 151.164 160.909C151.164 163.04 151.505 164.838 152.187 166.304C152.877 167.77 153.819 168.878 155.012 169.628C156.206 170.378 157.548 170.753 159.039 170.753C159.866 170.753 160.65 170.642 161.392 170.42C162.142 170.19 162.819 169.854 163.424 169.411C164.029 168.967 164.541 168.426 164.958 167.787C165.385 167.139 165.679 166.398 165.841 165.562L169.829 165.575C169.616 166.862 169.203 168.047 168.589 169.129C167.984 170.203 167.204 171.132 166.25 171.916C165.304 172.692 164.221 173.293 163.002 173.719C161.784 174.145 160.454 174.358 159.014 174.358C156.747 174.358 154.727 173.821 152.954 172.747C151.181 171.665 149.784 170.118 148.761 168.107C147.747 166.095 147.24 163.696 147.24 160.909C147.24 158.114 147.751 155.714 148.774 153.712C149.797 151.7 151.194 150.158 152.967 149.084C154.74 148.001 156.755 147.46 159.014 147.46C160.403 147.46 161.699 147.661 162.9 148.061C164.11 148.453 165.197 149.033 166.16 149.8C167.123 150.558 167.92 151.487 168.551 152.587C169.181 153.678 169.608 154.926 169.829 156.332ZM178.072 147.818V174H174.249V147.818H178.072ZM191.485 174.396C189.645 174.396 188.038 173.974 186.666 173.131C185.294 172.287 184.228 171.107 183.47 169.589C182.711 168.072 182.332 166.3 182.332 164.271C182.332 162.234 182.711 160.453 183.47 158.928C184.228 157.402 185.294 156.217 186.666 155.374C188.038 154.53 189.645 154.108 191.485 154.108C193.326 154.108 194.933 154.53 196.305 155.374C197.677 156.217 198.743 157.402 199.501 158.928C200.26 160.453 200.639 162.234 200.639 164.271C200.639 166.3 200.26 168.072 199.501 169.589C198.743 171.107 197.677 172.287 196.305 173.131C194.933 173.974 193.326 174.396 191.485 174.396ZM191.498 171.188C192.691 171.188 193.68 170.872 194.464 170.241C195.248 169.611 195.828 168.771 196.203 167.723C196.586 166.675 196.778 165.52 196.778 164.259C196.778 163.006 196.586 161.855 196.203 160.807C195.828 159.75 195.248 158.902 194.464 158.263C193.68 157.624 192.691 157.304 191.498 157.304C190.297 157.304 189.299 157.624 188.507 158.263C187.723 158.902 187.139 159.75 186.755 160.807C186.38 161.855 186.193 163.006 186.193 164.259C186.193 165.52 186.38 166.675 186.755 167.723C187.139 168.771 187.723 169.611 188.507 170.241C189.299 170.872 190.297 171.188 191.498 171.188ZM217.344 165.857V154.364H221.18V174H217.421V170.599H217.217C216.765 171.648 216.04 172.521 215.043 173.22C214.055 173.911 212.823 174.256 211.349 174.256C210.087 174.256 208.971 173.979 207.999 173.425C207.036 172.862 206.278 172.031 205.724 170.932C205.178 169.832 204.906 168.473 204.906 166.854V154.364H208.728V166.393C208.728 167.732 209.099 168.797 209.84 169.589C210.582 170.382 211.545 170.778 212.729 170.778C213.445 170.778 214.157 170.599 214.864 170.241C215.58 169.884 216.173 169.342 216.641 168.618C217.119 167.893 217.353 166.973 217.344 165.857ZM233.667 174.384C232.081 174.384 230.667 173.979 229.422 173.169C228.186 172.351 227.215 171.187 226.507 169.679C225.809 168.162 225.459 166.342 225.459 164.22C225.459 162.098 225.813 160.283 226.52 158.774C227.236 157.266 228.216 156.111 229.461 155.31C230.705 154.509 232.115 154.108 233.692 154.108C234.911 154.108 235.891 154.312 236.632 154.722C237.382 155.122 237.962 155.591 238.371 156.128C238.789 156.665 239.113 157.138 239.343 157.547H239.573V147.818H243.395V174H239.662V170.945H239.343C239.113 171.362 238.78 171.839 238.346 172.376C237.919 172.913 237.331 173.382 236.581 173.783C235.831 174.183 234.86 174.384 233.667 174.384ZM234.51 171.124C235.61 171.124 236.539 170.834 237.297 170.254C238.064 169.666 238.644 168.852 239.036 167.812C239.436 166.773 239.637 165.562 239.637 164.182C239.637 162.818 239.441 161.625 239.049 160.602C238.657 159.58 238.081 158.783 237.323 158.212C236.564 157.641 235.627 157.355 234.51 157.355C233.36 157.355 232.401 157.653 231.634 158.25C230.867 158.847 230.287 159.661 229.895 160.692C229.512 161.723 229.32 162.886 229.32 164.182C229.32 165.494 229.516 166.675 229.908 167.723C230.3 168.771 230.88 169.602 231.647 170.216C232.422 170.821 233.377 171.124 234.51 171.124ZM268.311 165.511H272.198L274.934 169.078L276.225 170.663L280.584 176.352H276.544L273.63 172.555L272.632 171.175L268.311 165.511ZM281.428 160.909C281.428 163.705 280.917 166.108 279.894 168.119C278.871 170.122 277.469 171.665 275.688 172.747C273.915 173.821 271.9 174.358 269.641 174.358C267.374 174.358 265.35 173.821 263.569 172.747C261.796 171.665 260.398 170.118 259.375 168.107C258.353 166.095 257.841 163.696 257.841 160.909C257.841 158.114 258.353 155.714 259.375 153.712C260.398 151.7 261.796 150.158 263.569 149.084C265.35 148.001 267.374 147.46 269.641 147.46C271.9 147.46 273.915 148.001 275.688 149.084C277.469 150.158 278.871 151.7 279.894 153.712C280.917 155.714 281.428 158.114 281.428 160.909ZM277.516 160.909C277.516 158.778 277.171 156.984 276.48 155.527C275.799 154.061 274.861 152.953 273.668 152.203C272.483 151.445 271.141 151.065 269.641 151.065C268.132 151.065 266.786 151.445 265.601 152.203C264.417 152.953 263.479 154.061 262.789 155.527C262.107 156.984 261.766 158.778 261.766 160.909C261.766 163.04 262.107 164.838 262.789 166.304C263.479 167.761 264.417 168.869 265.601 169.628C266.786 170.378 268.132 170.753 269.641 170.753C271.141 170.753 272.483 170.378 273.668 169.628C274.861 168.869 275.799 167.761 276.48 166.304C277.171 164.838 277.516 163.04 277.516 160.909ZM298.485 165.857V154.364H302.32V174H298.562V170.599H298.357C297.906 171.648 297.181 172.521 296.184 173.22C295.195 173.911 293.964 174.256 292.489 174.256C291.228 174.256 290.112 173.979 289.14 173.425C288.177 172.862 287.418 172.031 286.864 170.932C286.319 169.832 286.046 168.473 286.046 166.854V154.364H289.869V166.393C289.869 167.732 290.239 168.797 290.981 169.589C291.722 170.382 292.685 170.778 293.87 170.778C294.586 170.778 295.298 170.599 296.005 170.241C296.721 169.884 297.313 169.342 297.782 168.618C298.259 167.893 298.494 166.973 298.485 165.857ZM307.456 174V154.364H311.279V174H307.456ZM309.387 151.334C308.722 151.334 308.151 151.112 307.674 150.669C307.205 150.217 306.971 149.68 306.971 149.058C306.971 148.428 307.205 147.891 307.674 147.447C308.151 146.996 308.722 146.77 309.387 146.77C310.051 146.77 310.618 146.996 311.087 147.447C311.564 147.891 311.803 148.428 311.803 149.058C311.803 149.68 311.564 150.217 311.087 150.669C310.618 151.112 310.051 151.334 309.387 151.334ZM324.692 174.396C322.792 174.396 321.156 173.966 319.783 173.105C318.42 172.236 317.371 171.038 316.638 169.513C315.906 167.987 315.539 166.24 315.539 164.271C315.539 162.277 315.914 160.517 316.664 158.991C317.414 157.457 318.471 156.26 319.835 155.399C321.198 154.538 322.805 154.108 324.654 154.108C326.146 154.108 327.475 154.385 328.643 154.939C329.81 155.484 330.752 156.251 331.468 157.24C332.192 158.229 332.623 159.384 332.759 160.705H329.039C328.835 159.784 328.366 158.991 327.633 158.327C326.908 157.662 325.937 157.33 324.718 157.33C323.653 157.33 322.719 157.611 321.918 158.173C321.126 158.727 320.508 159.52 320.065 160.551C319.621 161.574 319.4 162.784 319.4 164.182C319.4 165.614 319.617 166.849 320.052 167.889C320.487 168.929 321.1 169.734 321.893 170.305C322.694 170.876 323.636 171.162 324.718 171.162C325.442 171.162 326.099 171.03 326.687 170.766C327.283 170.493 327.782 170.105 328.183 169.602C328.592 169.099 328.877 168.494 329.039 167.787H332.759C332.623 169.057 332.21 170.19 331.519 171.188C330.829 172.185 329.904 172.969 328.745 173.54C327.594 174.111 326.244 174.396 324.692 174.396ZM340.363 167.339L340.337 162.673H341.002L348.826 154.364H353.402L344.479 163.824H343.878L340.363 167.339ZM336.847 174V147.818H340.669V174H336.847ZM349.248 174L342.216 164.668L344.85 161.996L353.939 174H349.248ZM371.6 159.158L368.136 159.771C367.991 159.328 367.761 158.906 367.446 158.506C367.139 158.105 366.721 157.777 366.193 157.521C365.664 157.266 365.004 157.138 364.211 157.138C363.129 157.138 362.225 157.381 361.501 157.866C360.777 158.344 360.414 158.962 360.414 159.72C360.414 160.376 360.657 160.905 361.143 161.305C361.629 161.706 362.413 162.034 363.495 162.29L366.615 163.006C368.422 163.423 369.768 164.067 370.654 164.936C371.541 165.805 371.984 166.935 371.984 168.324C371.984 169.5 371.643 170.548 370.961 171.469C370.288 172.381 369.346 173.097 368.136 173.616C366.934 174.136 365.541 174.396 363.956 174.396C361.757 174.396 359.963 173.928 358.574 172.99C357.184 172.044 356.332 170.702 356.017 168.963L359.711 168.401C359.941 169.364 360.414 170.092 361.13 170.587C361.846 171.072 362.779 171.315 363.93 171.315C365.183 171.315 366.184 171.055 366.934 170.536C367.684 170.007 368.059 169.364 368.059 168.605C368.059 167.991 367.829 167.476 367.369 167.058C366.917 166.641 366.223 166.325 365.285 166.112L361.961 165.384C360.129 164.966 358.774 164.301 357.896 163.389C357.027 162.477 356.592 161.322 356.592 159.925C356.592 158.766 356.916 157.751 357.564 156.882C358.211 156.013 359.106 155.335 360.248 154.849C361.39 154.355 362.699 154.108 364.173 154.108C366.295 154.108 367.966 154.568 369.184 155.489C370.403 156.401 371.208 157.624 371.6 159.158ZM385.353 154.364V157.432H374.627V154.364H385.353ZM377.504 149.659H381.326V168.234C381.326 168.976 381.437 169.534 381.658 169.909C381.88 170.276 382.165 170.527 382.515 170.663C382.873 170.791 383.261 170.855 383.678 170.855C383.985 170.855 384.254 170.834 384.484 170.791C384.714 170.749 384.893 170.714 385.021 170.689L385.711 173.847C385.489 173.932 385.174 174.017 384.765 174.102C384.356 174.196 383.844 174.247 383.231 174.256C382.225 174.273 381.288 174.094 380.418 173.719C379.549 173.344 378.846 172.764 378.309 171.98C377.772 171.196 377.504 170.212 377.504 169.027V149.659ZM395.296 174.435C394.051 174.435 392.926 174.205 391.921 173.744C390.915 173.276 390.118 172.598 389.53 171.712C388.951 170.825 388.661 169.739 388.661 168.452C388.661 167.344 388.874 166.432 389.3 165.716C389.726 165 390.301 164.433 391.026 164.016C391.75 163.598 392.56 163.283 393.455 163.07C394.35 162.857 395.262 162.695 396.191 162.584C397.367 162.447 398.321 162.337 399.054 162.251C399.787 162.158 400.32 162.009 400.652 161.804C400.985 161.599 401.151 161.267 401.151 160.807V160.717C401.151 159.601 400.836 158.736 400.205 158.122C399.583 157.509 398.654 157.202 397.418 157.202C396.131 157.202 395.117 157.487 394.375 158.058C393.642 158.621 393.135 159.247 392.854 159.938L389.262 159.119C389.688 157.926 390.31 156.963 391.128 156.23C391.955 155.489 392.905 154.952 393.979 154.619C395.053 154.278 396.182 154.108 397.367 154.108C398.151 154.108 398.982 154.202 399.86 154.389C400.746 154.568 401.573 154.901 402.34 155.386C403.115 155.872 403.75 156.567 404.245 157.47C404.739 158.365 404.986 159.528 404.986 160.96V174H401.253V171.315H401.1C400.853 171.81 400.482 172.295 399.988 172.773C399.493 173.25 398.858 173.646 398.083 173.962C397.307 174.277 396.378 174.435 395.296 174.435ZM396.127 171.366C397.184 171.366 398.087 171.158 398.837 170.74C399.596 170.322 400.171 169.777 400.563 169.104C400.963 168.422 401.164 167.693 401.164 166.918V164.386C401.027 164.523 400.763 164.651 400.371 164.77C399.988 164.881 399.549 164.979 399.054 165.064C398.56 165.141 398.078 165.213 397.61 165.281C397.141 165.341 396.749 165.392 396.434 165.435C395.692 165.528 395.015 165.686 394.401 165.908C393.796 166.129 393.31 166.449 392.944 166.866C392.586 167.276 392.407 167.821 392.407 168.503C392.407 169.449 392.756 170.165 393.455 170.651C394.154 171.128 395.044 171.366 396.127 171.366ZM410.077 174V154.364H413.772V157.483H413.977C414.335 156.426 414.965 155.595 415.869 154.99C416.781 154.376 417.812 154.07 418.962 154.07C419.201 154.07 419.482 154.078 419.806 154.095C420.138 154.112 420.398 154.134 420.586 154.159V157.815C420.433 157.773 420.16 157.726 419.768 157.675C419.376 157.615 418.984 157.585 418.592 157.585C417.688 157.585 416.883 157.777 416.175 158.161C415.477 158.536 414.923 159.06 414.513 159.733C414.104 160.398 413.9 161.156 413.9 162.009V174H410.077ZM434.22 154.364V157.432H423.494V154.364H434.22ZM426.371 149.659H430.193V168.234C430.193 168.976 430.304 169.534 430.526 169.909C430.747 170.276 431.033 170.527 431.382 170.663C431.74 170.791 432.128 170.855 432.545 170.855C432.852 170.855 433.121 170.834 433.351 170.791C433.581 170.749 433.76 170.714 433.888 170.689L434.578 173.847C434.357 173.932 434.041 174.017 433.632 174.102C433.223 174.196 432.712 174.247 432.098 174.256C431.092 174.273 430.155 174.094 429.286 173.719C428.416 173.344 427.713 172.764 427.176 171.98C426.639 171.196 426.371 170.212 426.371 169.027V149.659ZM457.321 154.364V157.432H446.224V154.364H457.321ZM449.267 174V152.088C449.267 150.861 449.536 149.842 450.072 149.033C450.609 148.214 451.321 147.605 452.207 147.205C453.094 146.795 454.057 146.591 455.097 146.591C455.864 146.591 456.52 146.655 457.065 146.783C457.611 146.902 458.016 147.013 458.28 147.115L457.385 150.209C457.206 150.158 456.976 150.098 456.695 150.03C456.413 149.953 456.072 149.915 455.672 149.915C454.743 149.915 454.078 150.145 453.678 150.605C453.286 151.065 453.089 151.73 453.089 152.599V174H449.267ZM468.763 174.396C466.922 174.396 465.315 173.974 463.943 173.131C462.571 172.287 461.506 171.107 460.747 169.589C459.989 168.072 459.609 166.3 459.609 164.271C459.609 162.234 459.989 160.453 460.747 158.928C461.506 157.402 462.571 156.217 463.943 155.374C465.315 154.53 466.922 154.108 468.763 154.108C470.604 154.108 472.21 154.53 473.582 155.374C474.955 156.217 476.02 157.402 476.778 158.928C477.537 160.453 477.916 162.234 477.916 164.271C477.916 166.3 477.537 168.072 476.778 169.589C476.02 171.107 474.955 172.287 473.582 173.131C472.21 173.974 470.604 174.396 468.763 174.396ZM468.776 171.188C469.969 171.188 470.957 170.872 471.741 170.241C472.526 169.611 473.105 168.771 473.48 167.723C473.864 166.675 474.055 165.52 474.055 164.259C474.055 163.006 473.864 161.855 473.48 160.807C473.105 159.75 472.526 158.902 471.741 158.263C470.957 157.624 469.969 157.304 468.776 157.304C467.574 157.304 466.577 157.624 465.784 158.263C465 158.902 464.416 159.75 464.033 160.807C463.658 161.855 463.47 163.006 463.47 164.259C463.47 165.52 463.658 166.675 464.033 167.723C464.416 168.771 465 169.611 465.784 170.241C466.577 170.872 467.574 171.188 468.776 171.188ZM482.183 174V154.364H485.877V157.483H486.082C486.44 156.426 487.071 155.595 487.974 154.99C488.886 154.376 489.917 154.07 491.068 154.07C491.306 154.07 491.588 154.078 491.912 154.095C492.244 154.112 492.504 154.134 492.691 154.159V157.815C492.538 157.773 492.265 157.726 491.873 157.675C491.481 157.615 491.089 157.585 490.697 157.585C489.794 157.585 488.988 157.777 488.281 158.161C487.582 158.536 487.028 159.06 486.619 159.733C486.21 160.398 486.005 161.156 486.005 162.009V174H482.183ZM508.045 174.243C507.346 174.243 506.745 173.996 506.243 173.501C505.74 172.999 505.488 172.393 505.488 171.686C505.488 170.987 505.74 170.391 506.243 169.896C506.745 169.393 507.346 169.142 508.045 169.142C508.744 169.142 509.345 169.393 509.848 169.896C510.35 170.391 510.602 170.987 510.602 171.686C510.602 172.155 510.483 172.585 510.244 172.977C510.014 173.361 509.707 173.668 509.324 173.898C508.94 174.128 508.514 174.243 508.045 174.243ZM537.161 147.818V174H533.53L520.222 154.798H519.979V174H516.029V147.818H519.685L533.006 167.045H533.249V147.818H537.161ZM542.923 174V147.818H559.338V151.219H546.874V159.196H558.482V162.584H546.874V170.599H559.491V174H542.923ZM563.324 151.219V147.818H583.586V151.219H575.417V174H571.48V151.219H563.324ZM608.854 159.247V162.571H597.246V159.247H608.854ZM623.783 174V147.818H633.371C635.229 147.818 636.767 148.125 637.986 148.739C639.205 149.344 640.116 150.166 640.722 151.206C641.327 152.237 641.629 153.401 641.629 154.696C641.629 155.787 641.429 156.707 641.028 157.457C640.628 158.199 640.091 158.795 639.418 159.247C638.753 159.69 638.02 160.014 637.219 160.219V160.474C638.088 160.517 638.936 160.798 639.763 161.318C640.598 161.83 641.288 162.558 641.834 163.504C642.379 164.45 642.652 165.601 642.652 166.956C642.652 168.294 642.337 169.496 641.706 170.561C641.084 171.618 640.121 172.457 638.817 173.08C637.513 173.693 635.847 174 633.818 174H623.783ZM627.733 170.612H633.435C635.327 170.612 636.682 170.246 637.5 169.513C638.318 168.78 638.727 167.864 638.727 166.764C638.727 165.937 638.518 165.179 638.101 164.489C637.683 163.798 637.087 163.249 636.311 162.839C635.544 162.43 634.632 162.226 633.575 162.226H627.733V170.612ZM627.733 159.145H633.026C633.912 159.145 634.709 158.974 635.416 158.634C636.132 158.293 636.699 157.815 637.116 157.202C637.543 156.58 637.756 155.847 637.756 155.003C637.756 153.92 637.376 153.013 636.618 152.28C635.859 151.547 634.696 151.18 633.128 151.18H627.733V159.145ZM652.745 174.435C651.501 174.435 650.376 174.205 649.37 173.744C648.364 173.276 647.567 172.598 646.979 171.712C646.4 170.825 646.11 169.739 646.11 168.452C646.11 167.344 646.323 166.432 646.749 165.716C647.175 165 647.751 164.433 648.475 164.016C649.2 163.598 650.009 163.283 650.904 163.07C651.799 162.857 652.711 162.695 653.64 162.584C654.816 162.447 655.771 162.337 656.504 162.251C657.237 162.158 657.769 162.009 658.102 161.804C658.434 161.599 658.6 161.267 658.6 160.807V160.717C658.6 159.601 658.285 158.736 657.654 158.122C657.032 157.509 656.103 157.202 654.867 157.202C653.58 157.202 652.566 157.487 651.825 158.058C651.092 158.621 650.585 159.247 650.303 159.938L646.711 159.119C647.137 157.926 647.759 156.963 648.577 156.23C649.404 155.489 650.354 154.952 651.428 154.619C652.502 154.278 653.631 154.108 654.816 154.108C655.6 154.108 656.431 154.202 657.309 154.389C658.195 154.568 659.022 154.901 659.789 155.386C660.565 155.872 661.2 156.567 661.694 157.47C662.188 158.365 662.435 159.528 662.435 160.96V174H658.702V171.315H658.549C658.302 171.81 657.931 172.295 657.437 172.773C656.942 173.25 656.308 173.646 655.532 173.962C654.756 174.277 653.827 174.435 652.745 174.435ZM653.576 171.366C654.633 171.366 655.536 171.158 656.286 170.74C657.045 170.322 657.62 169.777 658.012 169.104C658.413 168.422 658.613 167.693 658.613 166.918V164.386C658.477 164.523 658.212 164.651 657.82 164.77C657.437 164.881 656.998 164.979 656.504 165.064C656.009 165.141 655.528 165.213 655.059 165.281C654.59 165.341 654.198 165.392 653.883 165.435C653.141 165.528 652.464 165.686 651.85 165.908C651.245 166.129 650.759 166.449 650.393 166.866C650.035 167.276 649.856 167.821 649.856 168.503C649.856 169.449 650.205 170.165 650.904 170.651C651.603 171.128 652.494 171.366 653.576 171.366ZM675.798 174.396C673.897 174.396 672.261 173.966 670.889 173.105C669.525 172.236 668.477 171.038 667.744 169.513C667.011 167.987 666.645 166.24 666.645 164.271C666.645 162.277 667.02 160.517 667.77 158.991C668.52 157.457 669.576 156.26 670.94 155.399C672.304 154.538 673.91 154.108 675.76 154.108C677.251 154.108 678.581 154.385 679.748 154.939C680.916 155.484 681.858 156.251 682.574 157.24C683.298 158.229 683.728 159.384 683.865 160.705H680.145C679.94 159.784 679.471 158.991 678.738 158.327C678.014 157.662 677.042 157.33 675.824 157.33C674.758 157.33 673.825 157.611 673.024 158.173C672.231 158.727 671.613 159.52 671.17 160.551C670.727 161.574 670.505 162.784 670.505 164.182C670.505 165.614 670.723 166.849 671.157 167.889C671.592 168.929 672.206 169.734 672.998 170.305C673.799 170.876 674.741 171.162 675.824 171.162C676.548 171.162 677.204 171.03 677.792 170.766C678.389 170.493 678.887 170.105 679.288 169.602C679.697 169.099 679.983 168.494 680.145 167.787H683.865C683.728 169.057 683.315 170.19 682.625 171.188C681.934 172.185 681.01 172.969 679.85 173.54C678.7 174.111 677.349 174.396 675.798 174.396ZM691.468 167.339L691.442 162.673H692.107L699.931 154.364H704.508L695.585 163.824H694.984L691.468 167.339ZM687.952 174V147.818H691.775V174H687.952ZM700.353 174L693.322 164.668L695.955 161.996L705.045 174H700.353ZM715.646 174.396C713.711 174.396 712.045 173.983 710.647 173.156C709.258 172.321 708.184 171.149 707.426 169.641C706.676 168.124 706.301 166.347 706.301 164.31C706.301 162.298 706.676 160.526 707.426 158.991C708.184 157.457 709.241 156.26 710.596 155.399C711.96 154.538 713.554 154.108 715.377 154.108C716.485 154.108 717.559 154.291 718.599 154.658C719.639 155.024 720.572 155.599 721.399 156.384C722.225 157.168 722.877 158.186 723.355 159.439C723.832 160.683 724.071 162.196 724.071 163.977V165.332H708.461V162.469H720.325C720.325 161.463 720.12 160.572 719.711 159.797C719.302 159.013 718.727 158.395 717.985 157.943C717.252 157.491 716.392 157.266 715.403 157.266C714.329 157.266 713.392 157.53 712.591 158.058C711.798 158.578 711.184 159.26 710.75 160.104C710.324 160.939 710.11 161.847 710.11 162.827V165.064C710.11 166.376 710.341 167.493 710.801 168.413C711.27 169.334 711.922 170.037 712.757 170.523C713.592 171 714.568 171.239 715.684 171.239C716.409 171.239 717.069 171.136 717.666 170.932C718.262 170.719 718.778 170.403 719.213 169.986C719.647 169.568 719.98 169.053 720.21 168.439L723.828 169.091C723.538 170.156 723.018 171.089 722.268 171.891C721.527 172.683 720.593 173.301 719.468 173.744C718.352 174.179 717.078 174.396 715.646 174.396ZM732.134 162.341V174H728.312V154.364H731.981V157.56H732.224C732.675 156.52 733.383 155.685 734.346 155.054C735.317 154.423 736.54 154.108 738.015 154.108C739.353 154.108 740.525 154.389 741.531 154.952C742.536 155.506 743.316 156.332 743.87 157.432C744.424 158.531 744.701 159.891 744.701 161.51V174H740.879V161.97C740.879 160.547 740.508 159.435 739.766 158.634C739.025 157.824 738.006 157.419 736.711 157.419C735.825 157.419 735.036 157.611 734.346 157.994C733.664 158.378 733.123 158.94 732.722 159.682C732.33 160.415 732.134 161.301 732.134 162.341ZM757.178 174.384C755.593 174.384 754.178 173.979 752.934 173.169C751.698 172.351 750.727 171.187 750.019 169.679C749.32 168.162 748.971 166.342 748.971 164.22C748.971 162.098 749.325 160.283 750.032 158.774C750.748 157.266 751.728 156.111 752.972 155.31C754.217 154.509 755.627 154.108 757.204 154.108C758.423 154.108 759.403 154.312 760.144 154.722C760.894 155.122 761.474 155.591 761.883 156.128C762.3 156.665 762.624 157.138 762.854 157.547H763.085V147.818H766.907V174H763.174V170.945H762.854C762.624 171.362 762.292 171.839 761.857 172.376C761.431 172.913 760.843 173.382 760.093 173.783C759.343 174.183 758.371 174.384 757.178 174.384ZM758.022 171.124C759.121 171.124 760.05 170.834 760.809 170.254C761.576 169.666 762.156 168.852 762.548 167.812C762.948 166.773 763.148 165.562 763.148 164.182C763.148 162.818 762.952 161.625 762.56 160.602C762.168 159.58 761.593 158.783 760.835 158.212C760.076 157.641 759.138 157.355 758.022 157.355C756.871 157.355 755.913 157.653 755.146 158.25C754.379 158.847 753.799 159.661 753.407 160.692C753.023 161.723 752.832 162.886 752.832 164.182C752.832 165.494 753.028 166.675 753.42 167.723C753.812 168.771 754.391 169.602 755.158 170.216C755.934 170.821 756.888 171.124 758.022 171.124Z" fill="#FCFCFC"/>
<g clip-path="url(#clip4_3409_5056)">
<path d="M1040.13 46.1636C1038.98 43.5454 1036.75 44.9272 1035.4 46.7454L1033.49 50.0545L1046.18 71.9999H1055L1040.13 46.1636Z" fill="url(#paint0_linear_3409_5056)"/>
<path d="M1024.13 42.8182C1022 40.2364 1017.87 39.2909 1014.78 40.7819C1013.29 41.4728 1012.05 42.5455 1011.18 44.0364C1011.18 44.0546 995 72 995 72H1004.05L1018.09 48.0182L1019.25 46C1019.47 45.6364 1021.93 41.5091 1024.13 42.8182Z" fill="url(#paint1_linear_3409_5056)"/>
<path d="M1013.84 67.4726C1014.33 68.2545 1018.11 75.1272 1018.67 75.5999C1020.96 76.5999 1022.53 72.7454 1023.49 71.2363L1017.64 61.0908L1013.84 67.4726Z" fill="url(#paint2_linear_3409_5056)"/>
<path d="M1031.96 61.0908L1025.33 72.5999C1025.33 72.5999 1022.47 78.6908 1019.87 77.5454C1021.31 79.1635 1023.44 80.0726 1025.6 79.9999C1028.09 79.8908 1030.38 78.5454 1031.65 76.3454L1036.27 68.3272C1036.22 68.2363 1032.02 61.1635 1031.96 61.0908Z" fill="url(#paint3_linear_3409_5056)"/>
<path d="M1037.8 42.5999C1035.47 39.8908 1031.24 39.1818 1028.18 41.0363C1025.29 42.4908 1022.4 49.5454 1020.62 52.1272C1020.65 52.1999 1025.04 59.7636 1025.07 59.8363C1026.71 56.9999 1030.45 50.509 1032.05 47.7454C1033.16 45.9272 1035.07 41.2908 1037.8 42.5999Z" fill="url(#paint4_linear_3409_5056)"/>
<path d="M1024.76 44.8545C1023.15 47.4364 1021.67 50.6 1020.62 52.1273L1019.38 50C1020.16 48.5454 1022.62 44.0364 1024.76 44.8545Z" fill="url(#paint5_linear_3409_5056)"/>
<path d="M1085.45 54.3093C1084.31 54.2911 1083.18 54.5456 1082.16 55.0547C1081.15 55.5638 1080.25 56.3274 1079.6 57.2547C1078.96 56.3274 1078.09 55.582 1077.09 55.0729C1076.09 54.5638 1074.96 54.3093 1073.84 54.3274C1069.35 54.3274 1066.29 57.9456 1066.29 63.3093V71.982H1069.75V63.3093C1069.75 59.8184 1071.29 57.7456 1073.87 57.7456C1076.45 57.7456 1077.93 59.8911 1077.93 63.3093V71.982H1081.2V63.3093C1081.2 59.8184 1082.75 57.7456 1085.35 57.7456C1087.95 57.7456 1089.38 59.8911 1089.38 63.3093V71.982H1092.84V63.3093C1092.85 57.9274 1089.89 54.3093 1085.45 54.3093Z" fill="white"/>
<path d="M1103.62 54.0183C1098.64 54.0183 1095 57.8001 1095 63.0001C1095 68.2001 1098.62 71.9819 1103.62 71.9819C1108.62 71.9819 1112.24 68.2001 1112.24 63.0001C1112.24 57.8001 1108.58 54.0183 1103.62 54.0183ZM1103.62 68.5638C1100.56 68.5638 1098.44 66.291 1098.44 63.0001C1098.44 59.7092 1100.51 57.4365 1103.62 57.4365C1106.71 57.4365 1108.76 59.6729 1108.76 63.0001C1108.76 66.3274 1106.64 68.5638 1103.62 68.5638Z" fill="white"/>
<path d="M1122.4 54.3093C1117.87 54.3093 1114.45 58.1639 1114.45 63.2911V71.9639H1117.91V63.2911C1117.91 60.073 1119.76 57.7275 1122.42 57.7275C1125.07 57.7275 1126.82 60.073 1126.82 63.2911V71.9639H1130.27V63.2911C1130.31 58.1821 1126.91 54.3093 1122.4 54.3093Z" fill="white"/>
<path d="M1141 54.0183C1136.02 54.0183 1132.38 57.8001 1132.38 63.0001C1132.38 68.2001 1136 72.0001 1141 72.0001C1146 72.0001 1149.56 68.2183 1149.56 63.0183C1149.56 57.8183 1145.96 54.0183 1141 54.0183ZM1141 68.5638C1137.95 68.5638 1135.82 66.291 1135.82 63.0001C1135.82 59.7092 1137.91 57.4365 1141 57.4365C1144.09 57.4365 1146.15 59.6729 1146.15 63.0001C1146.15 66.3274 1144.04 68.5638 1141 68.5638Z" fill="white"/>
<path d="M1160.51 68.5273C1159.8 68.5273 1159.09 68.4 1158.44 68.1091C1157.78 67.8364 1157.18 67.4182 1156.69 66.9091C1156.2 66.4 1155.82 65.7819 1155.56 65.1091C1155.31 64.4364 1155.22 63.7273 1155.25 63.0182C1155.22 62.3091 1155.31 61.6 1155.56 60.9273C1155.82 60.2546 1156.18 59.6364 1156.69 59.1273C1157.18 58.6182 1157.78 58.2 1158.44 57.9273C1159.09 57.6546 1159.8 57.5091 1160.51 57.5091C1161.55 57.4364 1162.58 57.7091 1163.44 58.2909C1164.29 58.8728 1164.95 59.7273 1165.25 60.7091H1168.8C1168.45 58.8 1167.42 57.0728 1165.89 55.8728C1164.36 54.6728 1162.45 54.0546 1160.51 54.1455C1159.35 54.1273 1158.2 54.3455 1157.11 54.8C1156.04 55.2364 1155.05 55.9091 1154.25 56.7455C1153.45 57.5819 1152.82 58.5637 1152.4 59.6546C1151.98 60.7455 1151.8 61.8909 1151.85 63.0546C1151.82 64.2182 1152 65.3637 1152.42 66.4546C1152.84 67.5273 1153.45 68.5273 1154.27 69.3455C1155.07 70.1819 1156.05 70.8364 1157.13 71.291C1158.2 71.7455 1159.35 71.9637 1160.51 71.9637C1162.51 72.0364 1164.45 71.3819 1165.98 70.1091C1167.53 68.8364 1168.55 67.0546 1168.85 65.091H1165.35C1165.05 66.1273 1164.42 67.0364 1163.55 67.6728C1162.65 68.2728 1161.6 68.5819 1160.51 68.5273Z" fill="white"/>
<path d="M1174.45 48.3455H1171.18V71.8H1174.45V48.3455Z" fill="white"/>
<path d="M1185.33 54.0183C1180.35 54.0183 1176.71 57.8001 1176.71 63.0001C1176.71 68.2001 1180.33 71.9819 1185.33 71.9819C1190.33 71.9819 1193.89 68.2001 1193.89 63.0001C1193.89 57.8001 1190.29 54.0183 1185.33 54.0183ZM1185.33 68.5638C1182.27 68.5638 1180.15 66.291 1180.15 63.0001C1180.15 59.7092 1182.22 57.4365 1185.33 57.4365C1188.42 57.4365 1190.53 59.691 1190.53 63.0001C1190.53 66.3092 1188.36 68.5638 1185.33 68.5638Z" fill="white"/>
<path d="M1208.64 63.0182C1208.64 66.2364 1206.69 68.5818 1204.15 68.5818C1201.6 68.5818 1199.55 66.2546 1199.55 63.0182V54.3455H1196.09V63.0182C1196.09 68.1273 1199.53 72 1204.07 72C1208.64 72 1211.91 68.1273 1211.91 63.0182V54.3455H1208.64V63.0182Z" fill="white"/>
<path d="M1227.91 47.9819V55.9638C1226.42 54.6365 1224.49 53.891 1222.47 53.9092C1217.65 53.9092 1214.04 57.7638 1214.04 62.891C1214.04 68.0183 1217.67 71.8728 1222.67 71.8728C1227.67 71.8728 1231.36 68.091 1231.36 62.891V47.9819H1227.91ZM1222.65 68.5638C1219.13 68.5638 1217.51 65.691 1217.51 63.0001C1217.45 62.291 1217.55 61.5819 1217.78 60.9092C1218.02 60.2365 1218.38 59.6183 1218.87 59.091C1219.36 58.5638 1219.95 58.1456 1220.6 57.8728C1221.25 57.5819 1221.96 57.4365 1222.67 57.4365C1223.38 57.4365 1224.09 57.5819 1224.75 57.8728C1225.4 58.1638 1225.98 58.5819 1226.47 59.091C1226.96 59.6183 1227.33 60.2365 1227.56 60.9092C1227.8 61.5819 1227.89 62.291 1227.84 63.0001C1227.84 65.7638 1226.24 68.5638 1222.65 68.5638Z" fill="white"/>
</g>
</g>
<defs>
<filter id="filter0_f_3409_5056" x="-88.7158" y="-375.049" width="1589.68" height="975.591" filterUnits="userSpaceOnUse" color-interpolation-filters="sRGB">
<feFlood flood-opacity="0" result="BackgroundImageFix"/>
<feBlend mode="normal" in="SourceGraphic" in2="BackgroundImageFix" result="shape"/>
<feGaussianBlur stdDeviation="150" result="effect1_foregroundBlur_3409_5056"/>
</filter>
<filter id="filter1_f_3409_5056" x="608" y="-57" width="1238" height="1128" filterUnits="userSpaceOnUse" color-interpolation-filters="sRGB">
<feFlood flood-opacity="0" result="BackgroundImageFix"/>
<feBlend mode="normal" in="SourceGraphic" in2="BackgroundImageFix" result="shape"/>
<feGaussianBlur stdDeviation="110" result="effect1_foregroundBlur_3409_5056"/>
</filter>
<filter id="filter2_f_3409_5056" x="-800" y="-800" width="1234" height="1234" filterUnits="userSpaceOnUse" color-interpolation-filters="sRGB">
<feFlood flood-opacity="0" result="BackgroundImageFix"/>
<feBlend mode="normal" in="SourceGraphic" in2="BackgroundImageFix" result="shape"/>
<feGaussianBlur stdDeviation="125" result="effect1_foregroundBlur_3409_5056"/>
</filter>
<linearGradient id="paint0_linear_3409_5056" x1="1023.23" y1="59.6691" x2="1071.37" y2="56.9646" gradientUnits="userSpaceOnUse">
<stop stop-color="#0586FD"/>
<stop offset="0.88" stop-color="#111FFF"/>
</linearGradient>
<linearGradient id="paint1_linear_3409_5056" x1="990.031" y1="84.2775" x2="1042.16" y2="7.1637" gradientUnits="userSpaceOnUse">
<stop stop-color="#0586FD"/>
<stop offset="0.88" stop-color="#111FFF"/>
</linearGradient>
<linearGradient id="paint2_linear_3409_5056" x1="992.557" y1="90.2186" x2="1061.97" y2="32.7357" gradientUnits="userSpaceOnUse">
<stop stop-color="#0586FD"/>
<stop offset="0.88" stop-color="#111FFF"/>
</linearGradient>
<linearGradient id="paint3_linear_3409_5056" x1="1006.62" y1="91.7521" x2="1058.09" y2="45.1592" gradientUnits="userSpaceOnUse">
<stop stop-color="#0586FD"/>
<stop offset="0.88" stop-color="#111FFF"/>
</linearGradient>
<linearGradient id="paint4_linear_3409_5056" x1="1021.11" y1="63.3361" x2="1040.6" y2="24.9081" gradientUnits="userSpaceOnUse">
<stop stop-color="#0586FD"/>
<stop offset="0.88" stop-color="#111FFF"/>
</linearGradient>
<linearGradient id="paint5_linear_3409_5056" x1="965.111" y1="89.4961" x2="1058.67" y2="22.0914" gradientUnits="userSpaceOnUse">
<stop stop-color="#0586FD"/>
<stop offset="0.88" stop-color="#111FFF"/>
</linearGradient>
<clipPath id="clip0_3409_5056">
<path d="M0 20C0 8.9543 8.95431 0 20 0H1260C1271.05 0 1280 8.95431 1280 20V205C1280 216.046 1271.05 225 1260 225H20C8.95431 225 0 216.046 0 205V20Z" fill="white"/>
</clipPath>
<clipPath id="clip1_3409_5056">
<path d="M48 57C48 50.3726 53.3726 45 60 45H116C122.627 45 128 50.3726 128 57V113C128 119.627 122.627 125 116 125H60C53.3726 125 48 119.627 48 113V57Z" fill="white"/>
</clipPath>
<clipPath id="clip2_3409_5056">
<rect width="80" height="80" fill="white" transform="translate(48 45)"/>
</clipPath>
<clipPath id="clip3_3409_5056">
<path d="M48 85C48 62.9086 65.9086 45 88 45V45C110.091 45 128 62.9086 128 85V85C128 107.091 110.091 125 88 125V125C65.9086 125 48 107.091 48 85V85Z" fill="white"/>
</clipPath>
<clipPath id="clip4_3409_5056">
<rect width="236.364" height="40" fill="white" transform="translate(995 40)"/>
</clipPath>
</defs>
</svg>
